M48
; DRILL file {KiCad 9.0.0} date 2025-03-24T14:59:19-0600
; FORMAT={-:-/ absolute / metric / decimal}
; #@! TF.CreationDate,2025-03-24T14:59:19-06:00
; #@! TF.GenerationSoftware,Kicad,Pcbnew,9.0.0
; #@! TF.FileFunction,Plated,1,2,PTH
FMAT,2
METRIC
; #@! TA.AperFunction,Plated,PTH,ComponentDrill
T1C0.800
; #@! TA.AperFunction,Plated,PTH,ComponentDrill
T2C0.900
; #@! TA.AperFunction,Plated,PTH,ComponentDrill
T3C1.000
; #@! TA.AperFunction,Plated,PTH,ComponentDrill
T4C1.270
%
G90
G05
T1
X92.0Y-125.0
X92.0Y-135.16
X92.0Y-153.34
X92.0Y-163.5
X95.5Y-125.5
X105.66Y-125.5
X108.42Y-125.5
X118.58Y-125.5
T2
X127.96Y-124.5
X130.5Y-124.5
T3
X92.0Y-144.0
X92.0Y-146.54
X92.0Y-149.08
X98.45Y-129.37
X98.45Y-144.61
X100.99Y-129.37
X100.99Y-144.61
X103.53Y-129.37
X103.53Y-144.61
X106.07Y-129.37
X106.07Y-144.61
X108.61Y-129.37
X108.61Y-144.61
X111.15Y-129.37
X111.15Y-144.61
X113.69Y-129.37
X113.69Y-144.61
X116.23Y-129.37
X116.23Y-144.61
X118.77Y-129.37
X118.77Y-144.61
X121.31Y-129.37
X121.31Y-144.61
X123.85Y-129.37
X123.85Y-144.61
X126.39Y-129.37
X126.39Y-144.61
X128.93Y-129.37
X128.93Y-144.61
X131.47Y-129.37
X131.47Y-144.61
X134.0Y-150.96
X134.0Y-153.5
X134.0Y-156.04
X134.0Y-158.58
X134.0Y-161.12
X134.01Y-129.37
X134.01Y-144.61
T4
X97.8Y-152.5
X97.8Y-159.2
X128.3Y-152.5
X128.3Y-159.2
M30
