G04 #@! TF.GenerationSoftware,KiCad,Pcbnew,9.0.0*
G04 #@! TF.CreationDate,2025-03-24T14:59:24-06:00*
G04 #@! TF.ProjectId,gc_2_n64,67635f32-5f6e-4363-942e-6b696361645f,rev?*
G04 #@! TF.SameCoordinates,Original*
G04 #@! TF.FileFunction,Copper,L2,Bot*
G04 #@! TF.FilePolarity,Positive*
%FSLAX46Y46*%
G04 Gerber Fmt 4.6, Leading zero omitted, Abs format (unit mm)*
G04 Created by KiCad (PCBNEW 9.0.0) date 2025-03-24 14:59:24*
%MOMM*%
%LPD*%
G01*
G04 APERTURE LIST*
G04 #@! TA.AperFunction,ComponentPad*
%ADD10C,1.600000*%
G04 #@! TD*
G04 #@! TA.AperFunction,ComponentPad*
%ADD11O,1.600000X1.600000*%
G04 #@! TD*
G04 #@! TA.AperFunction,ComponentPad*
%ADD12R,1.600000X1.600000*%
G04 #@! TD*
G04 #@! TA.AperFunction,ComponentPad*
%ADD13C,2.540000*%
G04 #@! TD*
G04 #@! TA.AperFunction,ComponentPad*
%ADD14R,1.800000X1.800000*%
G04 #@! TD*
G04 #@! TA.AperFunction,ComponentPad*
%ADD15C,1.800000*%
G04 #@! TD*
G04 #@! TA.AperFunction,ComponentPad*
%ADD16R,1.700000X1.700000*%
G04 #@! TD*
G04 #@! TA.AperFunction,ComponentPad*
%ADD17O,1.700000X1.700000*%
G04 #@! TD*
G04 APERTURE END LIST*
D10*
X92000000Y-125000000D03*
D11*
X92000000Y-135160000D03*
D10*
X92000000Y-153340000D03*
D11*
X92000000Y-163500000D03*
D12*
X98450000Y-144610000D03*
D11*
X100990000Y-144610000D03*
X103530000Y-144610000D03*
X106070000Y-144610000D03*
X108610000Y-144610000D03*
X111150000Y-144610000D03*
X113690000Y-144610000D03*
X116230000Y-144610000D03*
X118770000Y-144610000D03*
X121310000Y-144610000D03*
X123850000Y-144610000D03*
X126390000Y-144610000D03*
X128930000Y-144610000D03*
X131470000Y-144610000D03*
X134010000Y-144610000D03*
X134010000Y-129370000D03*
X131470000Y-129370000D03*
X128930000Y-129370000D03*
X126390000Y-129370000D03*
X123850000Y-129370000D03*
X121310000Y-129370000D03*
X118770000Y-129370000D03*
X116230000Y-129370000D03*
X113690000Y-129370000D03*
X111150000Y-129370000D03*
X108610000Y-129370000D03*
X106070000Y-129370000D03*
X103530000Y-129370000D03*
X100990000Y-129370000D03*
X98450000Y-129370000D03*
D13*
X97800000Y-159200000D03*
X97800000Y-152500000D03*
X128300000Y-159200000D03*
X128300000Y-152500000D03*
D10*
X105660000Y-125500000D03*
D11*
X95500000Y-125500000D03*
D14*
X127960000Y-124500000D03*
D15*
X130500000Y-124500000D03*
D16*
X92000000Y-144000000D03*
D17*
X92000000Y-146540000D03*
X92000000Y-149080000D03*
D16*
X134000000Y-150960000D03*
D17*
X134000000Y-153500000D03*
X134000000Y-156040000D03*
X134000000Y-158580000D03*
X134000000Y-161120000D03*
D10*
X108420000Y-125500000D03*
D11*
X118580000Y-125500000D03*
G04 #@! TA.AperFunction,Conductor*
G36*
X134250000Y-160686988D02*
G01*
X134192993Y-160654075D01*
X134065826Y-160620000D01*
X133934174Y-160620000D01*
X133807007Y-160654075D01*
X133750000Y-160686988D01*
X133750000Y-159013012D01*
X133807007Y-159045925D01*
X133934174Y-159080000D01*
X134065826Y-159080000D01*
X134192993Y-159045925D01*
X134250000Y-159013012D01*
X134250000Y-160686988D01*
G37*
G04 #@! TD.AperFunction*
G04 #@! TA.AperFunction,Conductor*
G36*
X139942539Y-121520185D02*
G01*
X139988294Y-121572989D01*
X139999500Y-121624500D01*
X139999500Y-165375500D01*
X139979815Y-165442539D01*
X139927011Y-165488294D01*
X139875500Y-165499500D01*
X66124500Y-165499500D01*
X66057461Y-165479815D01*
X66011706Y-165427011D01*
X66000500Y-165375500D01*
X66000500Y-163397648D01*
X90699500Y-163397648D01*
X90699500Y-163602351D01*
X90731522Y-163804534D01*
X90794781Y-163999223D01*
X90887715Y-164181613D01*
X91008028Y-164347213D01*
X91152786Y-164491971D01*
X91307749Y-164604556D01*
X91318390Y-164612287D01*
X91434607Y-164671503D01*
X91500776Y-164705218D01*
X91500778Y-164705218D01*
X91500781Y-164705220D01*
X91605137Y-164739127D01*
X91695465Y-164768477D01*
X91796557Y-164784488D01*
X91897648Y-164800500D01*
X91897649Y-164800500D01*
X92102351Y-164800500D01*
X92102352Y-164800500D01*
X92304534Y-164768477D01*
X92499219Y-164705220D01*
X92681610Y-164612287D01*
X92774590Y-164544732D01*
X92847213Y-164491971D01*
X92847215Y-164491968D01*
X92847219Y-164491966D01*
X92991966Y-164347219D01*
X92991968Y-164347215D01*
X92991971Y-164347213D01*
X93044732Y-164274590D01*
X93112287Y-164181610D01*
X93205220Y-163999219D01*
X93268477Y-163804534D01*
X93300500Y-163602352D01*
X93300500Y-163397648D01*
X93268477Y-163195466D01*
X93205220Y-163000781D01*
X93205218Y-163000778D01*
X93205218Y-163000776D01*
X93171503Y-162934607D01*
X93112287Y-162818390D01*
X93104556Y-162807749D01*
X92991971Y-162652786D01*
X92847213Y-162508028D01*
X92681613Y-162387715D01*
X92681612Y-162387714D01*
X92681610Y-162387713D01*
X92624653Y-162358691D01*
X92499223Y-162294781D01*
X92304534Y-162231522D01*
X92129995Y-162203878D01*
X92102352Y-162199500D01*
X91897648Y-162199500D01*
X91873329Y-162203351D01*
X91695465Y-162231522D01*
X91500776Y-162294781D01*
X91318386Y-162387715D01*
X91152786Y-162508028D01*
X91008028Y-162652786D01*
X90887715Y-162818386D01*
X90794781Y-163000776D01*
X90731522Y-163195465D01*
X90699500Y-163397648D01*
X66000500Y-163397648D01*
X66000500Y-159083947D01*
X96029500Y-159083947D01*
X96029500Y-159316052D01*
X96059794Y-159546148D01*
X96119862Y-159770328D01*
X96208677Y-159984745D01*
X96208685Y-159984762D01*
X96324720Y-160185743D01*
X96324721Y-160185745D01*
X96466009Y-160369875D01*
X96466015Y-160369882D01*
X96630117Y-160533984D01*
X96630124Y-160533990D01*
X96814254Y-160675278D01*
X96814256Y-160675279D01*
X97015237Y-160791314D01*
X97015240Y-160791315D01*
X97015248Y-160791320D01*
X97229670Y-160880137D01*
X97453851Y-160940206D01*
X97683955Y-160970500D01*
X97683962Y-160970500D01*
X97916038Y-160970500D01*
X97916045Y-160970500D01*
X98146149Y-160940206D01*
X98370330Y-160880137D01*
X98584752Y-160791320D01*
X98785748Y-160675276D01*
X98969877Y-160533989D01*
X99133989Y-160369877D01*
X99275276Y-160185748D01*
X99391320Y-159984752D01*
X99480137Y-159770330D01*
X99540206Y-159546149D01*
X99570500Y-159316045D01*
X99570500Y-159083955D01*
X99570499Y-159083947D01*
X126529500Y-159083947D01*
X126529500Y-159316052D01*
X126559794Y-159546148D01*
X126619862Y-159770328D01*
X126708677Y-159984745D01*
X126708685Y-159984762D01*
X126824720Y-160185743D01*
X126824721Y-160185745D01*
X126966009Y-160369875D01*
X126966015Y-160369882D01*
X127130117Y-160533984D01*
X127130124Y-160533990D01*
X127314254Y-160675278D01*
X127314256Y-160675279D01*
X127515237Y-160791314D01*
X127515240Y-160791315D01*
X127515248Y-160791320D01*
X127729670Y-160880137D01*
X127953851Y-160940206D01*
X128183955Y-160970500D01*
X128183962Y-160970500D01*
X128416038Y-160970500D01*
X128416045Y-160970500D01*
X128646149Y-160940206D01*
X128870330Y-160880137D01*
X129084752Y-160791320D01*
X129285748Y-160675276D01*
X129469877Y-160533989D01*
X129633989Y-160369877D01*
X129775276Y-160185748D01*
X129891320Y-159984752D01*
X129980137Y-159770330D01*
X130040206Y-159546149D01*
X130070500Y-159316045D01*
X130070500Y-159083955D01*
X130040206Y-158853851D01*
X129980137Y-158629670D01*
X129891320Y-158415248D01*
X129891314Y-158415237D01*
X129775279Y-158214256D01*
X129775278Y-158214254D01*
X129633990Y-158030124D01*
X129633984Y-158030117D01*
X129469882Y-157866015D01*
X129469875Y-157866009D01*
X129285745Y-157724721D01*
X129285743Y-157724720D01*
X129084762Y-157608685D01*
X129084754Y-157608681D01*
X129084752Y-157608680D01*
X128943753Y-157550276D01*
X128870328Y-157519862D01*
X128728203Y-157481780D01*
X128646149Y-157459794D01*
X128617386Y-157456007D01*
X128416052Y-157429500D01*
X128416045Y-157429500D01*
X128183955Y-157429500D01*
X128183947Y-157429500D01*
X127953851Y-157459794D01*
X127729671Y-157519862D01*
X127515254Y-157608677D01*
X127515237Y-157608685D01*
X127314256Y-157724720D01*
X127314254Y-157724721D01*
X127130124Y-157866009D01*
X127130117Y-157866015D01*
X126966015Y-158030117D01*
X126966009Y-158030124D01*
X126824721Y-158214254D01*
X126824720Y-158214256D01*
X126708685Y-158415237D01*
X126708677Y-158415254D01*
X126619862Y-158629671D01*
X126559794Y-158853851D01*
X126529500Y-159083947D01*
X99570499Y-159083947D01*
X99540206Y-158853851D01*
X99480137Y-158629670D01*
X99391320Y-158415248D01*
X99391314Y-158415237D01*
X99275279Y-158214256D01*
X99275278Y-158214254D01*
X99133990Y-158030124D01*
X99133984Y-158030117D01*
X98969882Y-157866015D01*
X98969875Y-157866009D01*
X98785745Y-157724721D01*
X98785743Y-157724720D01*
X98584762Y-157608685D01*
X98584754Y-157608681D01*
X98584752Y-157608680D01*
X98443753Y-157550276D01*
X98370328Y-157519862D01*
X98228203Y-157481780D01*
X98146149Y-157459794D01*
X98117386Y-157456007D01*
X97916052Y-157429500D01*
X97916045Y-157429500D01*
X97683955Y-157429500D01*
X97683947Y-157429500D01*
X97453851Y-157459794D01*
X97229671Y-157519862D01*
X97015254Y-157608677D01*
X97015237Y-157608685D01*
X96814256Y-157724720D01*
X96814254Y-157724721D01*
X96630124Y-157866009D01*
X96630117Y-157866015D01*
X96466015Y-158030117D01*
X96466009Y-158030124D01*
X96324721Y-158214254D01*
X96324720Y-158214256D01*
X96208685Y-158415237D01*
X96208677Y-158415254D01*
X96119862Y-158629671D01*
X96059794Y-158853851D01*
X96029500Y-159083947D01*
X66000500Y-159083947D01*
X66000500Y-153237648D01*
X90699500Y-153237648D01*
X90699500Y-153442351D01*
X90731522Y-153644534D01*
X90794781Y-153839223D01*
X90887715Y-154021613D01*
X91008028Y-154187213D01*
X91152786Y-154331971D01*
X91307749Y-154444556D01*
X91318390Y-154452287D01*
X91434607Y-154511503D01*
X91500776Y-154545218D01*
X91500778Y-154545218D01*
X91500781Y-154545220D01*
X91605137Y-154579127D01*
X91695465Y-154608477D01*
X91796557Y-154624488D01*
X91897648Y-154640500D01*
X91897649Y-154640500D01*
X92102351Y-154640500D01*
X92102352Y-154640500D01*
X92304534Y-154608477D01*
X92499219Y-154545220D01*
X92681610Y-154452287D01*
X92781400Y-154379786D01*
X92847213Y-154331971D01*
X92847215Y-154331968D01*
X92847219Y-154331966D01*
X92991966Y-154187219D01*
X92991968Y-154187215D01*
X92991971Y-154187213D01*
X93061969Y-154090867D01*
X93112287Y-154021610D01*
X93205220Y-153839219D01*
X93268477Y-153644534D01*
X93300500Y-153442352D01*
X93300500Y-153237648D01*
X93268477Y-153035466D01*
X93205220Y-152840781D01*
X93205218Y-152840778D01*
X93205218Y-152840776D01*
X93171503Y-152774607D01*
X93112287Y-152658390D01*
X93104556Y-152647749D01*
X92991971Y-152492786D01*
X92883179Y-152383994D01*
X96030000Y-152383994D01*
X96030000Y-152616005D01*
X96030001Y-152616022D01*
X96060283Y-152846040D01*
X96060286Y-152846053D01*
X96120336Y-153070167D01*
X96209124Y-153284521D01*
X96209132Y-153284538D01*
X96325136Y-153485461D01*
X96325142Y-153485469D01*
X96384117Y-153562327D01*
X97210438Y-152736006D01*
X97237271Y-152800785D01*
X97306764Y-152904789D01*
X97395211Y-152993236D01*
X97499215Y-153062729D01*
X97563992Y-153089561D01*
X96737671Y-153915881D01*
X96814530Y-153974857D01*
X96814538Y-153974863D01*
X97015461Y-154090867D01*
X97015478Y-154090875D01*
X97229832Y-154179663D01*
X97453946Y-154239713D01*
X97453959Y-154239716D01*
X97683977Y-154269998D01*
X97683995Y-154270000D01*
X97916005Y-154270000D01*
X97916022Y-154269998D01*
X98146040Y-154239716D01*
X98146053Y-154239713D01*
X98370167Y-154179663D01*
X98584521Y-154090875D01*
X98584538Y-154090867D01*
X98785475Y-153974855D01*
X98862327Y-153915883D01*
X98862327Y-153915880D01*
X98036007Y-153089561D01*
X98100785Y-153062729D01*
X98204789Y-152993236D01*
X98293236Y-152904789D01*
X98362729Y-152800785D01*
X98389560Y-152736007D01*
X99215880Y-153562327D01*
X99215883Y-153562327D01*
X99274855Y-153485475D01*
X99390867Y-153284538D01*
X99390875Y-153284521D01*
X99479663Y-153070167D01*
X99539713Y-152846053D01*
X99539716Y-152846040D01*
X99569998Y-152616022D01*
X99570000Y-152616005D01*
X99570000Y-152383994D01*
X126530000Y-152383994D01*
X126530000Y-152616005D01*
X126530001Y-152616022D01*
X126560283Y-152846040D01*
X126560286Y-152846053D01*
X126620336Y-153070167D01*
X126709124Y-153284521D01*
X126709132Y-153284538D01*
X126825136Y-153485461D01*
X126825142Y-153485469D01*
X126884117Y-153562327D01*
X127710438Y-152736006D01*
X127737271Y-152800785D01*
X127806764Y-152904789D01*
X127895211Y-152993236D01*
X127999215Y-153062729D01*
X128063992Y-153089561D01*
X127237671Y-153915881D01*
X127314530Y-153974857D01*
X127314538Y-153974863D01*
X127515461Y-154090867D01*
X127515478Y-154090875D01*
X127729832Y-154179663D01*
X127953946Y-154239713D01*
X127953959Y-154239716D01*
X128183977Y-154269998D01*
X128183995Y-154270000D01*
X128416005Y-154270000D01*
X128416022Y-154269998D01*
X128646040Y-154239716D01*
X128646053Y-154239713D01*
X128870167Y-154179663D01*
X129084521Y-154090875D01*
X129084538Y-154090867D01*
X129285475Y-153974855D01*
X129362327Y-153915883D01*
X129362327Y-153915880D01*
X128536007Y-153089561D01*
X128600785Y-153062729D01*
X128704789Y-152993236D01*
X128793236Y-152904789D01*
X128862729Y-152800785D01*
X128889561Y-152736007D01*
X129715880Y-153562327D01*
X129715883Y-153562327D01*
X129774855Y-153485475D01*
X129890867Y-153284538D01*
X129890875Y-153284521D01*
X129979663Y-153070167D01*
X130039713Y-152846053D01*
X130039716Y-152846040D01*
X130069998Y-152616022D01*
X130070000Y-152616005D01*
X130070000Y-152383994D01*
X130069998Y-152383977D01*
X130039716Y-152153959D01*
X130039713Y-152153946D01*
X129979663Y-151929832D01*
X129890875Y-151715478D01*
X129890867Y-151715461D01*
X129774863Y-151514538D01*
X129774857Y-151514530D01*
X129715881Y-151437671D01*
X128889560Y-152263991D01*
X128862729Y-152199215D01*
X128793236Y-152095211D01*
X128704789Y-152006764D01*
X128600785Y-151937271D01*
X128536007Y-151910438D01*
X129362327Y-151084117D01*
X129285469Y-151025142D01*
X129285461Y-151025136D01*
X129084538Y-150909132D01*
X129084521Y-150909124D01*
X128870167Y-150820336D01*
X128646053Y-150760286D01*
X128646040Y-150760283D01*
X128416022Y-150730001D01*
X128416005Y-150730000D01*
X128183995Y-150730000D01*
X128183977Y-150730001D01*
X127953959Y-150760283D01*
X127953946Y-150760286D01*
X127729832Y-150820336D01*
X127515478Y-150909124D01*
X127515461Y-150909132D01*
X127314541Y-151025134D01*
X127314533Y-151025140D01*
X127237671Y-151084116D01*
X127237671Y-151084117D01*
X128063992Y-151910438D01*
X127999215Y-151937271D01*
X127895211Y-152006764D01*
X127806764Y-152095211D01*
X127737271Y-152199215D01*
X127710438Y-152263992D01*
X126884117Y-151437671D01*
X126884116Y-151437671D01*
X126825140Y-151514533D01*
X126825134Y-151514541D01*
X126709132Y-151715461D01*
X126709124Y-151715478D01*
X126620336Y-151929832D01*
X126560286Y-152153946D01*
X126560283Y-152153959D01*
X126530001Y-152383977D01*
X126530000Y-152383994D01*
X99570000Y-152383994D01*
X99569998Y-152383977D01*
X99539716Y-152153959D01*
X99539713Y-152153946D01*
X99479663Y-151929832D01*
X99390875Y-151715478D01*
X99390867Y-151715461D01*
X99274863Y-151514538D01*
X99274857Y-151514530D01*
X99215881Y-151437671D01*
X98389560Y-152263991D01*
X98362729Y-152199215D01*
X98293236Y-152095211D01*
X98204789Y-152006764D01*
X98100785Y-151937271D01*
X98036007Y-151910438D01*
X98862327Y-151084117D01*
X98785469Y-151025142D01*
X98785461Y-151025136D01*
X98584538Y-150909132D01*
X98584521Y-150909124D01*
X98370167Y-150820336D01*
X98146053Y-150760286D01*
X98146040Y-150760283D01*
X97916022Y-150730001D01*
X97916005Y-150730000D01*
X97683995Y-150730000D01*
X97683977Y-150730001D01*
X97453959Y-150760283D01*
X97453946Y-150760286D01*
X97229832Y-150820336D01*
X97015478Y-150909124D01*
X97015461Y-150909132D01*
X96814541Y-151025134D01*
X96814533Y-151025140D01*
X96737671Y-151084116D01*
X96737671Y-151084117D01*
X97563992Y-151910438D01*
X97499215Y-151937271D01*
X97395211Y-152006764D01*
X97306764Y-152095211D01*
X97237271Y-152199215D01*
X97210439Y-152263992D01*
X96384117Y-151437671D01*
X96384116Y-151437671D01*
X96325140Y-151514533D01*
X96325134Y-151514541D01*
X96209132Y-151715461D01*
X96209124Y-151715478D01*
X96120336Y-151929832D01*
X96060286Y-152153946D01*
X96060283Y-152153959D01*
X96030001Y-152383977D01*
X96030000Y-152383994D01*
X92883179Y-152383994D01*
X92847213Y-152348028D01*
X92681613Y-152227715D01*
X92681612Y-152227714D01*
X92681610Y-152227713D01*
X92624653Y-152198691D01*
X92499223Y-152134781D01*
X92304534Y-152071522D01*
X92129995Y-152043878D01*
X92102352Y-152039500D01*
X91897648Y-152039500D01*
X91873329Y-152043351D01*
X91695465Y-152071522D01*
X91500776Y-152134781D01*
X91318386Y-152227715D01*
X91152786Y-152348028D01*
X91008028Y-152492786D01*
X90887715Y-152658386D01*
X90794781Y-152840776D01*
X90731522Y-153035465D01*
X90699500Y-153237648D01*
X66000500Y-153237648D01*
X66000500Y-143102135D01*
X90649500Y-143102135D01*
X90649500Y-144897870D01*
X90649501Y-144897876D01*
X90655908Y-144957483D01*
X90706202Y-145092328D01*
X90706206Y-145092335D01*
X90792452Y-145207544D01*
X90792455Y-145207547D01*
X90907664Y-145293793D01*
X90907671Y-145293797D01*
X91039082Y-145342810D01*
X91095016Y-145384681D01*
X91119433Y-145450145D01*
X91104582Y-145518418D01*
X91083431Y-145546673D01*
X90969889Y-145660215D01*
X90844951Y-145832179D01*
X90748444Y-146021585D01*
X90682753Y-146223760D01*
X90649500Y-146433713D01*
X90649500Y-146646286D01*
X90682753Y-146856239D01*
X90748444Y-147058414D01*
X90844951Y-147247820D01*
X90969890Y-147419786D01*
X91120213Y-147570109D01*
X91292179Y-147695048D01*
X91292181Y-147695049D01*
X91292184Y-147695051D01*
X91301493Y-147699794D01*
X91352290Y-147747766D01*
X91369087Y-147815587D01*
X91346552Y-147881722D01*
X91301502Y-147920762D01*
X91292443Y-147925378D01*
X91120540Y-148050272D01*
X91120535Y-148050276D01*
X90970276Y-148200535D01*
X90970272Y-148200540D01*
X90845379Y-148372442D01*
X90748904Y-148561782D01*
X90683242Y-148763870D01*
X90683242Y-148763873D01*
X90672769Y-148830000D01*
X91566988Y-148830000D01*
X91534075Y-148887007D01*
X91500000Y-149014174D01*
X91500000Y-149145826D01*
X91534075Y-149272993D01*
X91566988Y-149330000D01*
X90672769Y-149330000D01*
X90683242Y-149396126D01*
X90683242Y-149396129D01*
X90748904Y-149598217D01*
X90845379Y-149787557D01*
X90970272Y-149959459D01*
X90970276Y-149959464D01*
X91120535Y-150109723D01*
X91120540Y-150109727D01*
X91292442Y-150234620D01*
X91481782Y-150331095D01*
X91683871Y-150396757D01*
X91750000Y-150407231D01*
X91750000Y-149513012D01*
X91807007Y-149545925D01*
X91934174Y-149580000D01*
X92065826Y-149580000D01*
X92192993Y-149545925D01*
X92250000Y-149513012D01*
X92250000Y-150407230D01*
X92316126Y-150396757D01*
X92316129Y-150396757D01*
X92518217Y-150331095D01*
X92707557Y-150234620D01*
X92879459Y-150109727D01*
X92879464Y-150109723D01*
X92927052Y-150062135D01*
X132649500Y-150062135D01*
X132649500Y-151857870D01*
X132649501Y-151857876D01*
X132655908Y-151917483D01*
X132706202Y-152052328D01*
X132706206Y-152052335D01*
X132792452Y-152167544D01*
X132792455Y-152167547D01*
X132907664Y-152253793D01*
X132907671Y-152253797D01*
X133039082Y-152302810D01*
X133095016Y-152344681D01*
X133119433Y-152410145D01*
X133104582Y-152478418D01*
X133083431Y-152506673D01*
X132969889Y-152620215D01*
X132844951Y-152792179D01*
X132748444Y-152981585D01*
X132682753Y-153183760D01*
X132649500Y-153393713D01*
X132649500Y-153606287D01*
X132682754Y-153816243D01*
X132734290Y-153974855D01*
X132748444Y-154018414D01*
X132844951Y-154207820D01*
X132969890Y-154379786D01*
X133120213Y-154530109D01*
X133292182Y-154655050D01*
X133300946Y-154659516D01*
X133351742Y-154707491D01*
X133368536Y-154775312D01*
X133345998Y-154841447D01*
X133300946Y-154880484D01*
X133292182Y-154884949D01*
X133120213Y-155009890D01*
X132969890Y-155160213D01*
X132844951Y-155332179D01*
X132748444Y-155521585D01*
X132682753Y-155723760D01*
X132649500Y-155933713D01*
X132649500Y-156146286D01*
X132682753Y-156356239D01*
X132748444Y-156558414D01*
X132844951Y-156747820D01*
X132969890Y-156919786D01*
X133120213Y-157070109D01*
X133292179Y-157195048D01*
X133292181Y-157195049D01*
X133292184Y-157195051D01*
X133301493Y-157199794D01*
X133352290Y-157247766D01*
X133369087Y-157315587D01*
X133346552Y-157381722D01*
X133301502Y-157420762D01*
X133292443Y-157425378D01*
X133120540Y-157550272D01*
X133120535Y-157550276D01*
X132970276Y-157700535D01*
X132970272Y-157700540D01*
X132845379Y-157872442D01*
X132748904Y-158061782D01*
X132683242Y-158263870D01*
X132683242Y-158263873D01*
X132672769Y-158330000D01*
X133566988Y-158330000D01*
X133534075Y-158387007D01*
X133500000Y-158514174D01*
X133500000Y-158645826D01*
X133534075Y-158772993D01*
X133566988Y-158830000D01*
X132672769Y-158830000D01*
X132683242Y-158896126D01*
X132683242Y-158896129D01*
X132748904Y-159098217D01*
X132845379Y-159287557D01*
X132970272Y-159459459D01*
X132970276Y-159459464D01*
X133120535Y-159609723D01*
X133120540Y-159609727D01*
X133292444Y-159734622D01*
X133302048Y-159739516D01*
X133352844Y-159787491D01*
X133369638Y-159855312D01*
X133347100Y-159921447D01*
X133302048Y-159960484D01*
X133292444Y-159965377D01*
X133120540Y-160090272D01*
X133120535Y-160090276D01*
X132970276Y-160240535D01*
X132970272Y-160240540D01*
X132845379Y-160412442D01*
X132748904Y-160601782D01*
X132683242Y-160803870D01*
X132683242Y-160803873D01*
X132672769Y-160870000D01*
X133566988Y-160870000D01*
X133534075Y-160927007D01*
X133500000Y-161054174D01*
X133500000Y-161185826D01*
X133534075Y-161312993D01*
X133566988Y-161370000D01*
X132672769Y-161370000D01*
X132683242Y-161436126D01*
X132683242Y-161436129D01*
X132748904Y-161638217D01*
X132845379Y-161827557D01*
X132970272Y-161999459D01*
X132970276Y-161999464D01*
X133120535Y-162149723D01*
X133120540Y-162149727D01*
X133292442Y-162274620D01*
X133481782Y-162371095D01*
X133683871Y-162436757D01*
X133750000Y-162447231D01*
X133750000Y-161553012D01*
X133807007Y-161585925D01*
X133934174Y-161620000D01*
X134065826Y-161620000D01*
X134192993Y-161585925D01*
X134250000Y-161553012D01*
X134250000Y-162447230D01*
X134316126Y-162436757D01*
X134316129Y-162436757D01*
X134518217Y-162371095D01*
X134707557Y-162274620D01*
X134879459Y-162149727D01*
X134879464Y-162149723D01*
X135029723Y-161999464D01*
X135029727Y-161999459D01*
X135154620Y-161827557D01*
X135251095Y-161638217D01*
X135316757Y-161436129D01*
X135316757Y-161436126D01*
X135327231Y-161370000D01*
X134433012Y-161370000D01*
X134465925Y-161312993D01*
X134500000Y-161185826D01*
X134500000Y-161054174D01*
X134465925Y-160927007D01*
X134433012Y-160870000D01*
X135327231Y-160870000D01*
X135316757Y-160803873D01*
X135316757Y-160803870D01*
X135251095Y-160601782D01*
X135154620Y-160412442D01*
X135029727Y-160240540D01*
X135029723Y-160240535D01*
X134879464Y-160090276D01*
X134879459Y-160090272D01*
X134707558Y-159965379D01*
X134697954Y-159960486D01*
X134647157Y-159912512D01*
X134630361Y-159844692D01*
X134652897Y-159778556D01*
X134697954Y-159739514D01*
X134707558Y-159734620D01*
X134879459Y-159609727D01*
X134879464Y-159609723D01*
X135029723Y-159459464D01*
X135029727Y-159459459D01*
X135154620Y-159287557D01*
X135251095Y-159098217D01*
X135316757Y-158896129D01*
X135316757Y-158896126D01*
X135327231Y-158830000D01*
X134433012Y-158830000D01*
X134465925Y-158772993D01*
X134500000Y-158645826D01*
X134500000Y-158514174D01*
X134465925Y-158387007D01*
X134433012Y-158330000D01*
X135327231Y-158330000D01*
X135316757Y-158263873D01*
X135316757Y-158263870D01*
X135251095Y-158061782D01*
X135154620Y-157872442D01*
X135029727Y-157700540D01*
X135029723Y-157700535D01*
X134879464Y-157550276D01*
X134879459Y-157550272D01*
X134707555Y-157425377D01*
X134698500Y-157420763D01*
X134647706Y-157372788D01*
X134630912Y-157304966D01*
X134653451Y-157238832D01*
X134698508Y-157199793D01*
X134707816Y-157195051D01*
X134787007Y-157137515D01*
X134879786Y-157070109D01*
X134879788Y-157070106D01*
X134879792Y-157070104D01*
X135030104Y-156919792D01*
X135030106Y-156919788D01*
X135030109Y-156919786D01*
X135155048Y-156747820D01*
X135155047Y-156747820D01*
X135155051Y-156747816D01*
X135251557Y-156558412D01*
X135317246Y-156356243D01*
X135350500Y-156146287D01*
X135350500Y-155933713D01*
X135317246Y-155723757D01*
X135251557Y-155521588D01*
X135155051Y-155332184D01*
X135155049Y-155332181D01*
X135155048Y-155332179D01*
X135030109Y-155160213D01*
X134879786Y-155009890D01*
X134707820Y-154884951D01*
X134707115Y-154884591D01*
X134699054Y-154880485D01*
X134648259Y-154832512D01*
X134631463Y-154764692D01*
X134653999Y-154698556D01*
X134699054Y-154659515D01*
X134707816Y-154655051D01*
X134771920Y-154608477D01*
X134879786Y-154530109D01*
X134879788Y-154530106D01*
X134879792Y-154530104D01*
X135030104Y-154379792D01*
X135030106Y-154379788D01*
X135030109Y-154379786D01*
X135155048Y-154207820D01*
X135155047Y-154207820D01*
X135155051Y-154207816D01*
X135251557Y-154018412D01*
X135317246Y-153816243D01*
X135350500Y-153606287D01*
X135350500Y-153393713D01*
X135317246Y-153183757D01*
X135251557Y-152981588D01*
X135155051Y-152792184D01*
X135155049Y-152792181D01*
X135155048Y-152792179D01*
X135030109Y-152620213D01*
X134916569Y-152506673D01*
X134883084Y-152445350D01*
X134888068Y-152375658D01*
X134929940Y-152319725D01*
X134960915Y-152302810D01*
X135092331Y-152253796D01*
X135207546Y-152167546D01*
X135293796Y-152052331D01*
X135344091Y-151917483D01*
X135350500Y-151857873D01*
X135350499Y-150062128D01*
X135344091Y-150002517D01*
X135328033Y-149959464D01*
X135293797Y-149867671D01*
X135293793Y-149867664D01*
X135207547Y-149752455D01*
X135207544Y-149752452D01*
X135092335Y-149666206D01*
X135092328Y-149666202D01*
X134957482Y-149615908D01*
X134957483Y-149615908D01*
X134897883Y-149609501D01*
X134897881Y-149609500D01*
X134897873Y-149609500D01*
X134897864Y-149609500D01*
X133102129Y-149609500D01*
X133102123Y-149609501D01*
X133042516Y-149615908D01*
X132907671Y-149666202D01*
X132907664Y-149666206D01*
X132792455Y-149752452D01*
X132792452Y-149752455D01*
X132706206Y-149867664D01*
X132706202Y-149867671D01*
X132655908Y-150002517D01*
X132649501Y-150062116D01*
X132649501Y-150062123D01*
X132649500Y-150062135D01*
X92927052Y-150062135D01*
X93018063Y-149971125D01*
X93029723Y-149959464D01*
X93029727Y-149959459D01*
X93154620Y-149787557D01*
X93251095Y-149598217D01*
X93316757Y-149396129D01*
X93316757Y-149396126D01*
X93327231Y-149330000D01*
X92433012Y-149330000D01*
X92465925Y-149272993D01*
X92500000Y-149145826D01*
X92500000Y-149014174D01*
X92465925Y-148887007D01*
X92433012Y-148830000D01*
X93327231Y-148830000D01*
X93316757Y-148763873D01*
X93316757Y-148763870D01*
X93251095Y-148561782D01*
X93154620Y-148372442D01*
X93029727Y-148200540D01*
X93029723Y-148200535D01*
X92879464Y-148050276D01*
X92879459Y-148050272D01*
X92707555Y-147925377D01*
X92698500Y-147920763D01*
X92647706Y-147872788D01*
X92630912Y-147804966D01*
X92653451Y-147738832D01*
X92698508Y-147699793D01*
X92707816Y-147695051D01*
X92787007Y-147637515D01*
X92879786Y-147570109D01*
X92879788Y-147570106D01*
X92879792Y-147570104D01*
X93030104Y-147419792D01*
X93030106Y-147419788D01*
X93030109Y-147419786D01*
X93155048Y-147247820D01*
X93155047Y-147247820D01*
X93155051Y-147247816D01*
X93251557Y-147058412D01*
X93317246Y-146856243D01*
X93350500Y-146646287D01*
X93350500Y-146433713D01*
X93317246Y-146223757D01*
X93251557Y-146021588D01*
X93155051Y-145832184D01*
X93155049Y-145832181D01*
X93155048Y-145832179D01*
X93030109Y-145660213D01*
X92916569Y-145546673D01*
X92883084Y-145485350D01*
X92888068Y-145415658D01*
X92929940Y-145359725D01*
X92960915Y-145342810D01*
X93092331Y-145293796D01*
X93207546Y-145207546D01*
X93293796Y-145092331D01*
X93344091Y-144957483D01*
X93350500Y-144897873D01*
X93350499Y-143762135D01*
X97149500Y-143762135D01*
X97149500Y-145457870D01*
X97149501Y-145457876D01*
X97155908Y-145517483D01*
X97206202Y-145652328D01*
X97206206Y-145652335D01*
X97292452Y-145767544D01*
X97292455Y-145767547D01*
X97407664Y-145853793D01*
X97407671Y-145853797D01*
X97542517Y-145904091D01*
X97542516Y-145904091D01*
X97549444Y-145904835D01*
X97602127Y-145910500D01*
X99297872Y-145910499D01*
X99357483Y-145904091D01*
X99492331Y-145853796D01*
X99607546Y-145767546D01*
X99693796Y-145652331D01*
X99744091Y-145517483D01*
X99748061Y-145480556D01*
X99774796Y-145416011D01*
X99832188Y-145376161D01*
X99902013Y-145373666D01*
X99962102Y-145409317D01*
X99971667Y-145420929D01*
X99998032Y-145457217D01*
X100142786Y-145601971D01*
X100297749Y-145714556D01*
X100308390Y-145722287D01*
X100397212Y-145767544D01*
X100490776Y-145815218D01*
X100490778Y-145815218D01*
X100490781Y-145815220D01*
X100542991Y-145832184D01*
X100685465Y-145878477D01*
X100786557Y-145894488D01*
X100887648Y-145910500D01*
X100887649Y-145910500D01*
X101092351Y-145910500D01*
X101092352Y-145910500D01*
X101294534Y-145878477D01*
X101489219Y-145815220D01*
X101671610Y-145722287D01*
X101767901Y-145652328D01*
X101837213Y-145601971D01*
X101837215Y-145601968D01*
X101837219Y-145601966D01*
X101981966Y-145457219D01*
X101981968Y-145457215D01*
X101981971Y-145457213D01*
X102102284Y-145291614D01*
X102102286Y-145291611D01*
X102102287Y-145291610D01*
X102149516Y-145198917D01*
X102197489Y-145148123D01*
X102265310Y-145131328D01*
X102331445Y-145153865D01*
X102370483Y-145198917D01*
X102374881Y-145207547D01*
X102417715Y-145291614D01*
X102538028Y-145457213D01*
X102682786Y-145601971D01*
X102837749Y-145714556D01*
X102848390Y-145722287D01*
X102937212Y-145767544D01*
X103030776Y-145815218D01*
X103030778Y-145815218D01*
X103030781Y-145815220D01*
X103082991Y-145832184D01*
X103225465Y-145878477D01*
X103326557Y-145894488D01*
X103427648Y-145910500D01*
X103427649Y-145910500D01*
X103632351Y-145910500D01*
X103632352Y-145910500D01*
X103834534Y-145878477D01*
X104029219Y-145815220D01*
X104211610Y-145722287D01*
X104307901Y-145652328D01*
X104377213Y-145601971D01*
X104377215Y-145601968D01*
X104377219Y-145601966D01*
X104521966Y-145457219D01*
X104521968Y-145457215D01*
X104521971Y-145457213D01*
X104642284Y-145291614D01*
X104642286Y-145291611D01*
X104642287Y-145291610D01*
X104689795Y-145198369D01*
X104737770Y-145147574D01*
X104805591Y-145130779D01*
X104871725Y-145153316D01*
X104910765Y-145198370D01*
X104958140Y-145291349D01*
X105078417Y-145456894D01*
X105078417Y-145456895D01*
X105223104Y-145601582D01*
X105388650Y-145721859D01*
X105570968Y-145814754D01*
X105765578Y-145877988D01*
X105820000Y-145886607D01*
X105820000Y-145043012D01*
X105877007Y-145075925D01*
X106004174Y-145110000D01*
X106135826Y-145110000D01*
X106262993Y-145075925D01*
X106320000Y-145043012D01*
X106320000Y-145886606D01*
X106374421Y-145877988D01*
X106569031Y-145814754D01*
X106751349Y-145721859D01*
X106916894Y-145601582D01*
X106916895Y-145601582D01*
X107061582Y-145456895D01*
X107061582Y-145456894D01*
X107181861Y-145291347D01*
X107229234Y-145198371D01*
X107277208Y-145147575D01*
X107345028Y-145130779D01*
X107411164Y-145153316D01*
X107450203Y-145198369D01*
X107497713Y-145291611D01*
X107618028Y-145457213D01*
X107762786Y-145601971D01*
X107917749Y-145714556D01*
X107928390Y-145722287D01*
X108017212Y-145767544D01*
X108110776Y-145815218D01*
X108110778Y-145815218D01*
X108110781Y-145815220D01*
X108162991Y-145832184D01*
X108305465Y-145878477D01*
X108406557Y-145894488D01*
X108507648Y-145910500D01*
X108507649Y-145910500D01*
X108712351Y-145910500D01*
X108712352Y-145910500D01*
X108914534Y-145878477D01*
X109109219Y-145815220D01*
X109291610Y-145722287D01*
X109387901Y-145652328D01*
X109457213Y-145601971D01*
X109457215Y-145601968D01*
X109457219Y-145601966D01*
X109601966Y-145457219D01*
X109601968Y-145457215D01*
X109601971Y-145457213D01*
X109722284Y-145291614D01*
X109722286Y-145291611D01*
X109722287Y-145291610D01*
X109769516Y-145198917D01*
X109817489Y-145148123D01*
X109885310Y-145131328D01*
X109951445Y-145153865D01*
X109990483Y-145198917D01*
X109994881Y-145207547D01*
X110037715Y-145291614D01*
X110158028Y-145457213D01*
X110302786Y-145601971D01*
X110457749Y-145714556D01*
X110468390Y-145722287D01*
X110557212Y-145767544D01*
X110650776Y-145815218D01*
X110650778Y-145815218D01*
X110650781Y-145815220D01*
X110702991Y-145832184D01*
X110845465Y-145878477D01*
X110946557Y-145894488D01*
X111047648Y-145910500D01*
X111047649Y-145910500D01*
X111252351Y-145910500D01*
X111252352Y-145910500D01*
X111454534Y-145878477D01*
X111649219Y-145815220D01*
X111831610Y-145722287D01*
X111927901Y-145652328D01*
X111997213Y-145601971D01*
X111997215Y-145601968D01*
X111997219Y-145601966D01*
X112141966Y-145457219D01*
X112141968Y-145457215D01*
X112141971Y-145457213D01*
X112262284Y-145291614D01*
X112262286Y-145291611D01*
X112262287Y-145291610D01*
X112309516Y-145198917D01*
X112357489Y-145148123D01*
X112425310Y-145131328D01*
X112491445Y-145153865D01*
X112530483Y-145198917D01*
X112534881Y-145207547D01*
X112577715Y-145291614D01*
X112698028Y-145457213D01*
X112842786Y-145601971D01*
X112997749Y-145714556D01*
X113008390Y-145722287D01*
X113097212Y-145767544D01*
X113190776Y-145815218D01*
X113190778Y-145815218D01*
X113190781Y-145815220D01*
X113242991Y-145832184D01*
X113385465Y-145878477D01*
X113486557Y-145894488D01*
X113587648Y-145910500D01*
X113587649Y-145910500D01*
X113792351Y-145910500D01*
X113792352Y-145910500D01*
X113994534Y-145878477D01*
X114189219Y-145815220D01*
X114371610Y-145722287D01*
X114467901Y-145652328D01*
X114537213Y-145601971D01*
X114537215Y-145601968D01*
X114537219Y-145601966D01*
X114681966Y-145457219D01*
X114681968Y-145457215D01*
X114681971Y-145457213D01*
X114802284Y-145291614D01*
X114802286Y-145291611D01*
X114802287Y-145291610D01*
X114849516Y-145198917D01*
X114897489Y-145148123D01*
X114965310Y-145131328D01*
X115031445Y-145153865D01*
X115070483Y-145198917D01*
X115074881Y-145207547D01*
X115117715Y-145291614D01*
X115238028Y-145457213D01*
X115382786Y-145601971D01*
X115537749Y-145714556D01*
X115548390Y-145722287D01*
X115637212Y-145767544D01*
X115730776Y-145815218D01*
X115730778Y-145815218D01*
X115730781Y-145815220D01*
X115782991Y-145832184D01*
X115925465Y-145878477D01*
X116026557Y-145894488D01*
X116127648Y-145910500D01*
X116127649Y-145910500D01*
X116332351Y-145910500D01*
X116332352Y-145910500D01*
X116534534Y-145878477D01*
X116729219Y-145815220D01*
X116911610Y-145722287D01*
X117007901Y-145652328D01*
X117077213Y-145601971D01*
X117077215Y-145601968D01*
X117077219Y-145601966D01*
X117221966Y-145457219D01*
X117221968Y-145457215D01*
X117221971Y-145457213D01*
X117342284Y-145291614D01*
X117342286Y-145291611D01*
X117342287Y-145291610D01*
X117389516Y-145198917D01*
X117437489Y-145148123D01*
X117505310Y-145131328D01*
X117571445Y-145153865D01*
X117610483Y-145198917D01*
X117614881Y-145207547D01*
X117657715Y-145291614D01*
X117778028Y-145457213D01*
X117922786Y-145601971D01*
X118077749Y-145714556D01*
X118088390Y-145722287D01*
X118177212Y-145767544D01*
X118270776Y-145815218D01*
X118270778Y-145815218D01*
X118270781Y-145815220D01*
X118322991Y-145832184D01*
X118465465Y-145878477D01*
X118566557Y-145894488D01*
X118667648Y-145910500D01*
X118667649Y-145910500D01*
X118872351Y-145910500D01*
X118872352Y-145910500D01*
X119074534Y-145878477D01*
X119269219Y-145815220D01*
X119451610Y-145722287D01*
X119547901Y-145652328D01*
X119617213Y-145601971D01*
X119617215Y-145601968D01*
X119617219Y-145601966D01*
X119761966Y-145457219D01*
X119761968Y-145457215D01*
X119761971Y-145457213D01*
X119882284Y-145291614D01*
X119882286Y-145291611D01*
X119882287Y-145291610D01*
X119929516Y-145198917D01*
X119977489Y-145148123D01*
X120045310Y-145131328D01*
X120111445Y-145153865D01*
X120150483Y-145198917D01*
X120154881Y-145207547D01*
X120197715Y-145291614D01*
X120318028Y-145457213D01*
X120462786Y-145601971D01*
X120617749Y-145714556D01*
X120628390Y-145722287D01*
X120717212Y-145767544D01*
X120810776Y-145815218D01*
X120810778Y-145815218D01*
X120810781Y-145815220D01*
X120862991Y-145832184D01*
X121005465Y-145878477D01*
X121106557Y-145894488D01*
X121207648Y-145910500D01*
X121207649Y-145910500D01*
X121412351Y-145910500D01*
X121412352Y-145910500D01*
X121614534Y-145878477D01*
X121809219Y-145815220D01*
X121991610Y-145722287D01*
X122087901Y-145652328D01*
X122157213Y-145601971D01*
X122157215Y-145601968D01*
X122157219Y-145601966D01*
X122301966Y-145457219D01*
X122301968Y-145457215D01*
X122301971Y-145457213D01*
X122422284Y-145291614D01*
X122422286Y-145291611D01*
X122422287Y-145291610D01*
X122469516Y-145198917D01*
X122517489Y-145148123D01*
X122585310Y-145131328D01*
X122651445Y-145153865D01*
X122690483Y-145198917D01*
X122694881Y-145207547D01*
X122737715Y-145291614D01*
X122858028Y-145457213D01*
X123002786Y-145601971D01*
X123157749Y-145714556D01*
X123168390Y-145722287D01*
X123257212Y-145767544D01*
X123350776Y-145815218D01*
X123350778Y-145815218D01*
X123350781Y-145815220D01*
X123402991Y-145832184D01*
X123545465Y-145878477D01*
X123646557Y-145894488D01*
X123747648Y-145910500D01*
X123747649Y-145910500D01*
X123952351Y-145910500D01*
X123952352Y-145910500D01*
X124154534Y-145878477D01*
X124349219Y-145815220D01*
X124531610Y-145722287D01*
X124627901Y-145652328D01*
X124697213Y-145601971D01*
X124697215Y-145601968D01*
X124697219Y-145601966D01*
X124841966Y-145457219D01*
X124841968Y-145457215D01*
X124841971Y-145457213D01*
X124962284Y-145291614D01*
X124962286Y-145291611D01*
X124962287Y-145291610D01*
X125009516Y-145198917D01*
X125057489Y-145148123D01*
X125125310Y-145131328D01*
X125191445Y-145153865D01*
X125230483Y-145198917D01*
X125234881Y-145207547D01*
X125277715Y-145291614D01*
X125398028Y-145457213D01*
X125542786Y-145601971D01*
X125697749Y-145714556D01*
X125708390Y-145722287D01*
X125797212Y-145767544D01*
X125890776Y-145815218D01*
X125890778Y-145815218D01*
X125890781Y-145815220D01*
X125942991Y-145832184D01*
X126085465Y-145878477D01*
X126186557Y-145894488D01*
X126287648Y-145910500D01*
X126287649Y-145910500D01*
X126492351Y-145910500D01*
X126492352Y-145910500D01*
X126694534Y-145878477D01*
X126889219Y-145815220D01*
X127071610Y-145722287D01*
X127167901Y-145652328D01*
X127237213Y-145601971D01*
X127237215Y-145601968D01*
X127237219Y-145601966D01*
X127381966Y-145457219D01*
X127381968Y-145457215D01*
X127381971Y-145457213D01*
X127502284Y-145291614D01*
X127502286Y-145291611D01*
X127502287Y-145291610D01*
X127549516Y-145198917D01*
X127597489Y-145148123D01*
X127665310Y-145131328D01*
X127731445Y-145153865D01*
X127770483Y-145198917D01*
X127774881Y-145207547D01*
X127817715Y-145291614D01*
X127938028Y-145457213D01*
X128082786Y-145601971D01*
X128237749Y-145714556D01*
X128248390Y-145722287D01*
X128337212Y-145767544D01*
X128430776Y-145815218D01*
X128430778Y-145815218D01*
X128430781Y-145815220D01*
X128482991Y-145832184D01*
X128625465Y-145878477D01*
X128726557Y-145894488D01*
X128827648Y-145910500D01*
X128827649Y-145910500D01*
X129032351Y-145910500D01*
X129032352Y-145910500D01*
X129234534Y-145878477D01*
X129429219Y-145815220D01*
X129611610Y-145722287D01*
X129707901Y-145652328D01*
X129777213Y-145601971D01*
X129777215Y-145601968D01*
X129777219Y-145601966D01*
X129921966Y-145457219D01*
X129921968Y-145457215D01*
X129921971Y-145457213D01*
X130042284Y-145291614D01*
X130042286Y-145291611D01*
X130042287Y-145291610D01*
X130089516Y-145198917D01*
X130137489Y-145148123D01*
X130205310Y-145131328D01*
X130271445Y-145153865D01*
X130310483Y-145198917D01*
X130314881Y-145207547D01*
X130357715Y-145291614D01*
X130478028Y-145457213D01*
X130622786Y-145601971D01*
X130777749Y-145714556D01*
X130788390Y-145722287D01*
X130877212Y-145767544D01*
X130970776Y-145815218D01*
X130970778Y-145815218D01*
X130970781Y-145815220D01*
X131022991Y-145832184D01*
X131165465Y-145878477D01*
X131266557Y-145894488D01*
X131367648Y-145910500D01*
X131367649Y-145910500D01*
X131572351Y-145910500D01*
X131572352Y-145910500D01*
X131774534Y-145878477D01*
X131969219Y-145815220D01*
X132151610Y-145722287D01*
X132247901Y-145652328D01*
X132317213Y-145601971D01*
X132317215Y-145601968D01*
X132317219Y-145601966D01*
X132461966Y-145457219D01*
X132461968Y-145457215D01*
X132461971Y-145457213D01*
X132582284Y-145291614D01*
X132582286Y-145291611D01*
X132582287Y-145291610D01*
X132629516Y-145198917D01*
X132677489Y-145148123D01*
X132745310Y-145131328D01*
X132811445Y-145153865D01*
X132850483Y-145198917D01*
X132854881Y-145207547D01*
X132897715Y-145291614D01*
X133018028Y-145457213D01*
X133162786Y-145601971D01*
X133317749Y-145714556D01*
X133328390Y-145722287D01*
X133417212Y-145767544D01*
X133510776Y-145815218D01*
X133510778Y-145815218D01*
X133510781Y-145815220D01*
X133562991Y-145832184D01*
X133705465Y-145878477D01*
X133806557Y-145894488D01*
X133907648Y-145910500D01*
X133907649Y-145910500D01*
X134112351Y-145910500D01*
X134112352Y-145910500D01*
X134314534Y-145878477D01*
X134509219Y-145815220D01*
X134691610Y-145722287D01*
X134787901Y-145652328D01*
X134857213Y-145601971D01*
X134857215Y-145601968D01*
X134857219Y-145601966D01*
X135001966Y-145457219D01*
X135001968Y-145457215D01*
X135001971Y-145457213D01*
X135079502Y-145350499D01*
X135122287Y-145291610D01*
X135215220Y-145109219D01*
X135278477Y-144914534D01*
X135310500Y-144712352D01*
X135310500Y-144507648D01*
X135278477Y-144305466D01*
X135277673Y-144302993D01*
X135215218Y-144110776D01*
X135122419Y-143928650D01*
X135122287Y-143928390D01*
X135114556Y-143917749D01*
X135001971Y-143762786D01*
X134857213Y-143618028D01*
X134691613Y-143497715D01*
X134691612Y-143497714D01*
X134691610Y-143497713D01*
X134634653Y-143468691D01*
X134509223Y-143404781D01*
X134314534Y-143341522D01*
X134139995Y-143313878D01*
X134112352Y-143309500D01*
X133907648Y-143309500D01*
X133883329Y-143313351D01*
X133705465Y-143341522D01*
X133510776Y-143404781D01*
X133328386Y-143497715D01*
X133162786Y-143618028D01*
X133018028Y-143762786D01*
X132897715Y-143928386D01*
X132850485Y-144021080D01*
X132802510Y-144071876D01*
X132734689Y-144088671D01*
X132668554Y-144066134D01*
X132629515Y-144021080D01*
X132582419Y-143928650D01*
X132582287Y-143928390D01*
X132574556Y-143917749D01*
X132461971Y-143762786D01*
X132317213Y-143618028D01*
X132151613Y-143497715D01*
X132151612Y-143497714D01*
X132151610Y-143497713D01*
X132094653Y-143468691D01*
X131969223Y-143404781D01*
X131774534Y-143341522D01*
X131599995Y-143313878D01*
X131572352Y-143309500D01*
X131367648Y-143309500D01*
X131343329Y-143313351D01*
X131165465Y-143341522D01*
X130970776Y-143404781D01*
X130788386Y-143497715D01*
X130622786Y-143618028D01*
X130478028Y-143762786D01*
X130357715Y-143928386D01*
X130310485Y-144021080D01*
X130262510Y-144071876D01*
X130194689Y-144088671D01*
X130128554Y-144066134D01*
X130089515Y-144021080D01*
X130042419Y-143928650D01*
X130042287Y-143928390D01*
X130034556Y-143917749D01*
X129921971Y-143762786D01*
X129777213Y-143618028D01*
X129611613Y-143497715D01*
X129611612Y-143497714D01*
X129611610Y-143497713D01*
X129554653Y-143468691D01*
X129429223Y-143404781D01*
X129234534Y-143341522D01*
X129059995Y-143313878D01*
X129032352Y-143309500D01*
X128827648Y-143309500D01*
X128803329Y-143313351D01*
X128625465Y-143341522D01*
X128430776Y-143404781D01*
X128248386Y-143497715D01*
X128082786Y-143618028D01*
X127938028Y-143762786D01*
X127817715Y-143928386D01*
X127770485Y-144021080D01*
X127722510Y-144071876D01*
X127654689Y-144088671D01*
X127588554Y-144066134D01*
X127549515Y-144021080D01*
X127502419Y-143928650D01*
X127502287Y-143928390D01*
X127494556Y-143917749D01*
X127381971Y-143762786D01*
X127237213Y-143618028D01*
X127071613Y-143497715D01*
X127071612Y-143497714D01*
X127071610Y-143497713D01*
X127014653Y-143468691D01*
X126889223Y-143404781D01*
X126694534Y-143341522D01*
X126519995Y-143313878D01*
X126492352Y-143309500D01*
X126287648Y-143309500D01*
X126263329Y-143313351D01*
X126085465Y-143341522D01*
X125890776Y-143404781D01*
X125708386Y-143497715D01*
X125542786Y-143618028D01*
X125398028Y-143762786D01*
X125277715Y-143928386D01*
X125230485Y-144021080D01*
X125182510Y-144071876D01*
X125114689Y-144088671D01*
X125048554Y-144066134D01*
X125009515Y-144021080D01*
X124962419Y-143928650D01*
X124962287Y-143928390D01*
X124954556Y-143917749D01*
X124841971Y-143762786D01*
X124697213Y-143618028D01*
X124531613Y-143497715D01*
X124531612Y-143497714D01*
X124531610Y-143497713D01*
X124474653Y-143468691D01*
X124349223Y-143404781D01*
X124154534Y-143341522D01*
X123979995Y-143313878D01*
X123952352Y-143309500D01*
X123747648Y-143309500D01*
X123723329Y-143313351D01*
X123545465Y-143341522D01*
X123350776Y-143404781D01*
X123168386Y-143497715D01*
X123002786Y-143618028D01*
X122858028Y-143762786D01*
X122737715Y-143928386D01*
X122690485Y-144021080D01*
X122642510Y-144071876D01*
X122574689Y-144088671D01*
X122508554Y-144066134D01*
X122469515Y-144021080D01*
X122422419Y-143928650D01*
X122422287Y-143928390D01*
X122414556Y-143917749D01*
X122301971Y-143762786D01*
X122157213Y-143618028D01*
X121991613Y-143497715D01*
X121991612Y-143497714D01*
X121991610Y-143497713D01*
X121934653Y-143468691D01*
X121809223Y-143404781D01*
X121614534Y-143341522D01*
X121439995Y-143313878D01*
X121412352Y-143309500D01*
X121207648Y-143309500D01*
X121183329Y-143313351D01*
X121005465Y-143341522D01*
X120810776Y-143404781D01*
X120628386Y-143497715D01*
X120462786Y-143618028D01*
X120318028Y-143762786D01*
X120197715Y-143928386D01*
X120150485Y-144021080D01*
X120102510Y-144071876D01*
X120034689Y-144088671D01*
X119968554Y-144066134D01*
X119929515Y-144021080D01*
X119882419Y-143928650D01*
X119882287Y-143928390D01*
X119874556Y-143917749D01*
X119761971Y-143762786D01*
X119617213Y-143618028D01*
X119451613Y-143497715D01*
X119451612Y-143497714D01*
X119451610Y-143497713D01*
X119394653Y-143468691D01*
X119269223Y-143404781D01*
X119074534Y-143341522D01*
X118899995Y-143313878D01*
X118872352Y-143309500D01*
X118667648Y-143309500D01*
X118643329Y-143313351D01*
X118465465Y-143341522D01*
X118270776Y-143404781D01*
X118088386Y-143497715D01*
X117922786Y-143618028D01*
X117778028Y-143762786D01*
X117657715Y-143928386D01*
X117610485Y-144021080D01*
X117562510Y-144071876D01*
X117494689Y-144088671D01*
X117428554Y-144066134D01*
X117389515Y-144021080D01*
X117342419Y-143928650D01*
X117342287Y-143928390D01*
X117334556Y-143917749D01*
X117221971Y-143762786D01*
X117077213Y-143618028D01*
X116911613Y-143497715D01*
X116911612Y-143497714D01*
X116911610Y-143497713D01*
X116854653Y-143468691D01*
X116729223Y-143404781D01*
X116534534Y-143341522D01*
X116359995Y-143313878D01*
X116332352Y-143309500D01*
X116127648Y-143309500D01*
X116103329Y-143313351D01*
X115925465Y-143341522D01*
X115730776Y-143404781D01*
X115548386Y-143497715D01*
X115382786Y-143618028D01*
X115238028Y-143762786D01*
X115117715Y-143928386D01*
X115070485Y-144021080D01*
X115022510Y-144071876D01*
X114954689Y-144088671D01*
X114888554Y-144066134D01*
X114849515Y-144021080D01*
X114802419Y-143928650D01*
X114802287Y-143928390D01*
X114794556Y-143917749D01*
X114681971Y-143762786D01*
X114537213Y-143618028D01*
X114371613Y-143497715D01*
X114371612Y-143497714D01*
X114371610Y-143497713D01*
X114314653Y-143468691D01*
X114189223Y-143404781D01*
X113994534Y-143341522D01*
X113819995Y-143313878D01*
X113792352Y-143309500D01*
X113587648Y-143309500D01*
X113563329Y-143313351D01*
X113385465Y-143341522D01*
X113190776Y-143404781D01*
X113008386Y-143497715D01*
X112842786Y-143618028D01*
X112698028Y-143762786D01*
X112577715Y-143928386D01*
X112530485Y-144021080D01*
X112482510Y-144071876D01*
X112414689Y-144088671D01*
X112348554Y-144066134D01*
X112309515Y-144021080D01*
X112262419Y-143928650D01*
X112262287Y-143928390D01*
X112254556Y-143917749D01*
X112141971Y-143762786D01*
X111997213Y-143618028D01*
X111831613Y-143497715D01*
X111831612Y-143497714D01*
X111831610Y-143497713D01*
X111774653Y-143468691D01*
X111649223Y-143404781D01*
X111454534Y-143341522D01*
X111279995Y-143313878D01*
X111252352Y-143309500D01*
X111047648Y-143309500D01*
X111023329Y-143313351D01*
X110845465Y-143341522D01*
X110650776Y-143404781D01*
X110468386Y-143497715D01*
X110302786Y-143618028D01*
X110158028Y-143762786D01*
X110037715Y-143928386D01*
X109990485Y-144021080D01*
X109942510Y-144071876D01*
X109874689Y-144088671D01*
X109808554Y-144066134D01*
X109769515Y-144021080D01*
X109722419Y-143928650D01*
X109722287Y-143928390D01*
X109714556Y-143917749D01*
X109601971Y-143762786D01*
X109457213Y-143618028D01*
X109291613Y-143497715D01*
X109291612Y-143497714D01*
X109291610Y-143497713D01*
X109234653Y-143468691D01*
X109109223Y-143404781D01*
X108914534Y-143341522D01*
X108739995Y-143313878D01*
X108712352Y-143309500D01*
X108507648Y-143309500D01*
X108483329Y-143313351D01*
X108305465Y-143341522D01*
X108110776Y-143404781D01*
X107928386Y-143497715D01*
X107762786Y-143618028D01*
X107618028Y-143762786D01*
X107497713Y-143928388D01*
X107450203Y-144021630D01*
X107402228Y-144072426D01*
X107334407Y-144089220D01*
X107268272Y-144066682D01*
X107229234Y-144021628D01*
X107181861Y-143928652D01*
X107061582Y-143763105D01*
X107061582Y-143763104D01*
X106916895Y-143618417D01*
X106751349Y-143498140D01*
X106569029Y-143405244D01*
X106374413Y-143342009D01*
X106320000Y-143333390D01*
X106320000Y-144176988D01*
X106262993Y-144144075D01*
X106135826Y-144110000D01*
X106004174Y-144110000D01*
X105877007Y-144144075D01*
X105820000Y-144176988D01*
X105820000Y-143333390D01*
X105765586Y-143342009D01*
X105570970Y-143405244D01*
X105388650Y-143498140D01*
X105223105Y-143618417D01*
X105223104Y-143618417D01*
X105078417Y-143763104D01*
X105078417Y-143763105D01*
X104958140Y-143928650D01*
X104910765Y-144021629D01*
X104862790Y-144072425D01*
X104794969Y-144089220D01*
X104728834Y-144066682D01*
X104689795Y-144021629D01*
X104642419Y-143928650D01*
X104642287Y-143928390D01*
X104634556Y-143917749D01*
X104521971Y-143762786D01*
X104377213Y-143618028D01*
X104211613Y-143497715D01*
X104211612Y-143497714D01*
X104211610Y-143497713D01*
X104154653Y-143468691D01*
X104029223Y-143404781D01*
X103834534Y-143341522D01*
X103659995Y-143313878D01*
X103632352Y-143309500D01*
X103427648Y-143309500D01*
X103403329Y-143313351D01*
X103225465Y-143341522D01*
X103030776Y-143404781D01*
X102848386Y-143497715D01*
X102682786Y-143618028D01*
X102538028Y-143762786D01*
X102417715Y-143928386D01*
X102370485Y-144021080D01*
X102322510Y-144071876D01*
X102254689Y-144088671D01*
X102188554Y-144066134D01*
X102149515Y-144021080D01*
X102102419Y-143928650D01*
X102102287Y-143928390D01*
X102094556Y-143917749D01*
X101981971Y-143762786D01*
X101837213Y-143618028D01*
X101671613Y-143497715D01*
X101671612Y-143497714D01*
X101671610Y-143497713D01*
X101614653Y-143468691D01*
X101489223Y-143404781D01*
X101294534Y-143341522D01*
X101119995Y-143313878D01*
X101092352Y-143309500D01*
X100887648Y-143309500D01*
X100863329Y-143313351D01*
X100685465Y-143341522D01*
X100490776Y-143404781D01*
X100308386Y-143497715D01*
X100142786Y-143618028D01*
X99998032Y-143762782D01*
X99971668Y-143799070D01*
X99916338Y-143841735D01*
X99846724Y-143847714D01*
X99784929Y-143815108D01*
X99750572Y-143754269D01*
X99748060Y-143739438D01*
X99747640Y-143735533D01*
X99744091Y-143702517D01*
X99693796Y-143567669D01*
X99693795Y-143567668D01*
X99693793Y-143567664D01*
X99607547Y-143452455D01*
X99607544Y-143452452D01*
X99492335Y-143366206D01*
X99492328Y-143366202D01*
X99357482Y-143315908D01*
X99357483Y-143315908D01*
X99297883Y-143309501D01*
X99297881Y-143309500D01*
X99297873Y-143309500D01*
X99297864Y-143309500D01*
X97602129Y-143309500D01*
X97602123Y-143309501D01*
X97542516Y-143315908D01*
X97407671Y-143366202D01*
X97407664Y-143366206D01*
X97292455Y-143452452D01*
X97292452Y-143452455D01*
X97206206Y-143567664D01*
X97206202Y-143567671D01*
X97155908Y-143702517D01*
X97149501Y-143762116D01*
X97149500Y-143762135D01*
X93350499Y-143762135D01*
X93350499Y-143102128D01*
X93344091Y-143042517D01*
X93293796Y-142907669D01*
X93293795Y-142907668D01*
X93293793Y-142907664D01*
X93207547Y-142792455D01*
X93207544Y-142792452D01*
X93092335Y-142706206D01*
X93092328Y-142706202D01*
X92957482Y-142655908D01*
X92957483Y-142655908D01*
X92897883Y-142649501D01*
X92897881Y-142649500D01*
X92897873Y-142649500D01*
X92897864Y-142649500D01*
X91102129Y-142649500D01*
X91102123Y-142649501D01*
X91042516Y-142655908D01*
X90907671Y-142706202D01*
X90907664Y-142706206D01*
X90792455Y-142792452D01*
X90792452Y-142792455D01*
X90706206Y-142907664D01*
X90706202Y-142907671D01*
X90655908Y-143042517D01*
X90649501Y-143102116D01*
X90649501Y-143102123D01*
X90649500Y-143102135D01*
X66000500Y-143102135D01*
X66000500Y-135057648D01*
X90699500Y-135057648D01*
X90699500Y-135262351D01*
X90731522Y-135464534D01*
X90794781Y-135659223D01*
X90887715Y-135841613D01*
X91008028Y-136007213D01*
X91152786Y-136151971D01*
X91307749Y-136264556D01*
X91318390Y-136272287D01*
X91434607Y-136331503D01*
X91500776Y-136365218D01*
X91500778Y-136365218D01*
X91500781Y-136365220D01*
X91605137Y-136399127D01*
X91695465Y-136428477D01*
X91796557Y-136444488D01*
X91897648Y-136460500D01*
X91897649Y-136460500D01*
X92102351Y-136460500D01*
X92102352Y-136460500D01*
X92304534Y-136428477D01*
X92499219Y-136365220D01*
X92681610Y-136272287D01*
X92774590Y-136204732D01*
X92847213Y-136151971D01*
X92847215Y-136151968D01*
X92847219Y-136151966D01*
X92991966Y-136007219D01*
X92991968Y-136007215D01*
X92991971Y-136007213D01*
X93044732Y-135934590D01*
X93112287Y-135841610D01*
X93205220Y-135659219D01*
X93268477Y-135464534D01*
X93300500Y-135262352D01*
X93300500Y-135057648D01*
X93268477Y-134855466D01*
X93205220Y-134660781D01*
X93205218Y-134660778D01*
X93205218Y-134660776D01*
X93171503Y-134594607D01*
X93112287Y-134478390D01*
X93104556Y-134467749D01*
X92991971Y-134312786D01*
X92847213Y-134168028D01*
X92681613Y-134047715D01*
X92681612Y-134047714D01*
X92681610Y-134047713D01*
X92624653Y-134018691D01*
X92499223Y-133954781D01*
X92304534Y-133891522D01*
X92129995Y-133863878D01*
X92102352Y-133859500D01*
X91897648Y-133859500D01*
X91873329Y-133863351D01*
X91695465Y-133891522D01*
X91500776Y-133954781D01*
X91318386Y-134047715D01*
X91152786Y-134168028D01*
X91008028Y-134312786D01*
X90887715Y-134478386D01*
X90794781Y-134660776D01*
X90731522Y-134855465D01*
X90699500Y-135057648D01*
X66000500Y-135057648D01*
X66000500Y-129267648D01*
X97149500Y-129267648D01*
X97149500Y-129472351D01*
X97181522Y-129674534D01*
X97244781Y-129869223D01*
X97337715Y-130051613D01*
X97458028Y-130217213D01*
X97602786Y-130361971D01*
X97757749Y-130474556D01*
X97768390Y-130482287D01*
X97884607Y-130541503D01*
X97950776Y-130575218D01*
X97950778Y-130575218D01*
X97950781Y-130575220D01*
X98055137Y-130609127D01*
X98145465Y-130638477D01*
X98246557Y-130654488D01*
X98347648Y-130670500D01*
X98347649Y-130670500D01*
X98552351Y-130670500D01*
X98552352Y-130670500D01*
X98754534Y-130638477D01*
X98949219Y-130575220D01*
X99131610Y-130482287D01*
X99224590Y-130414732D01*
X99297213Y-130361971D01*
X99297215Y-130361968D01*
X99297219Y-130361966D01*
X99441966Y-130217219D01*
X99441968Y-130217215D01*
X99441971Y-130217213D01*
X99562284Y-130051614D01*
X99562286Y-130051611D01*
X99562287Y-130051610D01*
X99609795Y-129958369D01*
X99657770Y-129907574D01*
X99725591Y-129890779D01*
X99791725Y-129913316D01*
X99830765Y-129958370D01*
X99878140Y-130051349D01*
X99998417Y-130216894D01*
X99998417Y-130216895D01*
X100143104Y-130361582D01*
X100308650Y-130481859D01*
X100490968Y-130574754D01*
X100685578Y-130637988D01*
X100740000Y-130646607D01*
X100740000Y-129803012D01*
X100797007Y-129835925D01*
X100924174Y-129870000D01*
X101055826Y-129870000D01*
X101182993Y-129835925D01*
X101240000Y-129803012D01*
X101240000Y-130646606D01*
X101294421Y-130637988D01*
X101489031Y-130574754D01*
X101671349Y-130481859D01*
X101836894Y-130361582D01*
X101836895Y-130361582D01*
X101981582Y-130216895D01*
X101981582Y-130216894D01*
X102101861Y-130051347D01*
X102149234Y-129958371D01*
X102197208Y-129907575D01*
X102265028Y-129890779D01*
X102331164Y-129913316D01*
X102370203Y-129958369D01*
X102417713Y-130051611D01*
X102538028Y-130217213D01*
X102682786Y-130361971D01*
X102837749Y-130474556D01*
X102848390Y-130482287D01*
X102964607Y-130541503D01*
X103030776Y-130575218D01*
X103030778Y-130575218D01*
X103030781Y-130575220D01*
X103135137Y-130609127D01*
X103225465Y-130638477D01*
X103326557Y-130654488D01*
X103427648Y-130670500D01*
X103427649Y-130670500D01*
X103632351Y-130670500D01*
X103632352Y-130670500D01*
X103834534Y-130638477D01*
X104029219Y-130575220D01*
X104211610Y-130482287D01*
X104304590Y-130414732D01*
X104377213Y-130361971D01*
X104377215Y-130361968D01*
X104377219Y-130361966D01*
X104521966Y-130217219D01*
X104521968Y-130217215D01*
X104521971Y-130217213D01*
X104642284Y-130051614D01*
X104642286Y-130051611D01*
X104642287Y-130051610D01*
X104689516Y-129958917D01*
X104737489Y-129908123D01*
X104805310Y-129891328D01*
X104871445Y-129913865D01*
X104910485Y-129958919D01*
X104957715Y-130051614D01*
X105078028Y-130217213D01*
X105222786Y-130361971D01*
X105377749Y-130474556D01*
X105388390Y-130482287D01*
X105504607Y-130541503D01*
X105570776Y-130575218D01*
X105570778Y-130575218D01*
X105570781Y-130575220D01*
X105675137Y-130609127D01*
X105765465Y-130638477D01*
X105866557Y-130654488D01*
X105967648Y-130670500D01*
X105967649Y-130670500D01*
X106172351Y-130670500D01*
X106172352Y-130670500D01*
X106374534Y-130638477D01*
X106569219Y-130575220D01*
X106751610Y-130482287D01*
X106844590Y-130414732D01*
X106917213Y-130361971D01*
X106917215Y-130361968D01*
X106917219Y-130361966D01*
X107061966Y-130217219D01*
X107061968Y-130217215D01*
X107061971Y-130217213D01*
X107182284Y-130051614D01*
X107182286Y-130051611D01*
X107182287Y-130051610D01*
X107229516Y-129958917D01*
X107277489Y-129908123D01*
X107345310Y-129891328D01*
X107411445Y-129913865D01*
X107450485Y-129958919D01*
X107497715Y-130051614D01*
X107618028Y-130217213D01*
X107762786Y-130361971D01*
X107917749Y-130474556D01*
X107928390Y-130482287D01*
X108044607Y-130541503D01*
X108110776Y-130575218D01*
X108110778Y-130575218D01*
X108110781Y-130575220D01*
X108215137Y-130609127D01*
X108305465Y-130638477D01*
X108406557Y-130654488D01*
X108507648Y-130670500D01*
X108507649Y-130670500D01*
X108712351Y-130670500D01*
X108712352Y-130670500D01*
X108914534Y-130638477D01*
X109109219Y-130575220D01*
X109291610Y-130482287D01*
X109384590Y-130414732D01*
X109457213Y-130361971D01*
X109457215Y-130361968D01*
X109457219Y-130361966D01*
X109601966Y-130217219D01*
X109601968Y-130217215D01*
X109601971Y-130217213D01*
X109722284Y-130051614D01*
X109722286Y-130051611D01*
X109722287Y-130051610D01*
X109769516Y-129958917D01*
X109817489Y-129908123D01*
X109885310Y-129891328D01*
X109951445Y-129913865D01*
X109990485Y-129958919D01*
X110037715Y-130051614D01*
X110158028Y-130217213D01*
X110302786Y-130361971D01*
X110457749Y-130474556D01*
X110468390Y-130482287D01*
X110584607Y-130541503D01*
X110650776Y-130575218D01*
X110650778Y-130575218D01*
X110650781Y-130575220D01*
X110755137Y-130609127D01*
X110845465Y-130638477D01*
X110946557Y-130654488D01*
X111047648Y-130670500D01*
X111047649Y-130670500D01*
X111252351Y-130670500D01*
X111252352Y-130670500D01*
X111454534Y-130638477D01*
X111649219Y-130575220D01*
X111831610Y-130482287D01*
X111924590Y-130414732D01*
X111997213Y-130361971D01*
X111997215Y-130361968D01*
X111997219Y-130361966D01*
X112141966Y-130217219D01*
X112141968Y-130217215D01*
X112141971Y-130217213D01*
X112262284Y-130051614D01*
X112262286Y-130051611D01*
X112262287Y-130051610D01*
X112309516Y-129958917D01*
X112357489Y-129908123D01*
X112425310Y-129891328D01*
X112491445Y-129913865D01*
X112530485Y-129958919D01*
X112577715Y-130051614D01*
X112698028Y-130217213D01*
X112842786Y-130361971D01*
X112997749Y-130474556D01*
X113008390Y-130482287D01*
X113124607Y-130541503D01*
X113190776Y-130575218D01*
X113190778Y-130575218D01*
X113190781Y-130575220D01*
X113295137Y-130609127D01*
X113385465Y-130638477D01*
X113486557Y-130654488D01*
X113587648Y-130670500D01*
X113587649Y-130670500D01*
X113792351Y-130670500D01*
X113792352Y-130670500D01*
X113994534Y-130638477D01*
X114189219Y-130575220D01*
X114371610Y-130482287D01*
X114464590Y-130414732D01*
X114537213Y-130361971D01*
X114537215Y-130361968D01*
X114537219Y-130361966D01*
X114681966Y-130217219D01*
X114681968Y-130217215D01*
X114681971Y-130217213D01*
X114802284Y-130051614D01*
X114802286Y-130051611D01*
X114802287Y-130051610D01*
X114849516Y-129958917D01*
X114897489Y-129908123D01*
X114965310Y-129891328D01*
X115031445Y-129913865D01*
X115070485Y-129958919D01*
X115117715Y-130051614D01*
X115238028Y-130217213D01*
X115382786Y-130361971D01*
X115537749Y-130474556D01*
X115548390Y-130482287D01*
X115664607Y-130541503D01*
X115730776Y-130575218D01*
X115730778Y-130575218D01*
X115730781Y-130575220D01*
X115835137Y-130609127D01*
X115925465Y-130638477D01*
X116026557Y-130654488D01*
X116127648Y-130670500D01*
X116127649Y-130670500D01*
X116332351Y-130670500D01*
X116332352Y-130670500D01*
X116534534Y-130638477D01*
X116729219Y-130575220D01*
X116911610Y-130482287D01*
X117004590Y-130414732D01*
X117077213Y-130361971D01*
X117077215Y-130361968D01*
X117077219Y-130361966D01*
X117221966Y-130217219D01*
X117221968Y-130217215D01*
X117221971Y-130217213D01*
X117342284Y-130051614D01*
X117342286Y-130051611D01*
X117342287Y-130051610D01*
X117389516Y-129958917D01*
X117437489Y-129908123D01*
X117505310Y-129891328D01*
X117571445Y-129913865D01*
X117610485Y-129958919D01*
X117657715Y-130051614D01*
X117778028Y-130217213D01*
X117922786Y-130361971D01*
X118077749Y-130474556D01*
X118088390Y-130482287D01*
X118204607Y-130541503D01*
X118270776Y-130575218D01*
X118270778Y-130575218D01*
X118270781Y-130575220D01*
X118375137Y-130609127D01*
X118465465Y-130638477D01*
X118566557Y-130654488D01*
X118667648Y-130670500D01*
X118667649Y-130670500D01*
X118872351Y-130670500D01*
X118872352Y-130670500D01*
X119074534Y-130638477D01*
X119269219Y-130575220D01*
X119451610Y-130482287D01*
X119544590Y-130414732D01*
X119617213Y-130361971D01*
X119617215Y-130361968D01*
X119617219Y-130361966D01*
X119761966Y-130217219D01*
X119761968Y-130217215D01*
X119761971Y-130217213D01*
X119882284Y-130051614D01*
X119882286Y-130051611D01*
X119882287Y-130051610D01*
X119929516Y-129958917D01*
X119977489Y-129908123D01*
X120045310Y-129891328D01*
X120111445Y-129913865D01*
X120150485Y-129958919D01*
X120197715Y-130051614D01*
X120318028Y-130217213D01*
X120462786Y-130361971D01*
X120617749Y-130474556D01*
X120628390Y-130482287D01*
X120744607Y-130541503D01*
X120810776Y-130575218D01*
X120810778Y-130575218D01*
X120810781Y-130575220D01*
X120915137Y-130609127D01*
X121005465Y-130638477D01*
X121106557Y-130654488D01*
X121207648Y-130670500D01*
X121207649Y-130670500D01*
X121412351Y-130670500D01*
X121412352Y-130670500D01*
X121614534Y-130638477D01*
X121809219Y-130575220D01*
X121991610Y-130482287D01*
X122084590Y-130414732D01*
X122157213Y-130361971D01*
X122157215Y-130361968D01*
X122157219Y-130361966D01*
X122301966Y-130217219D01*
X122301968Y-130217215D01*
X122301971Y-130217213D01*
X122422284Y-130051614D01*
X122422286Y-130051611D01*
X122422287Y-130051610D01*
X122469516Y-129958917D01*
X122517489Y-129908123D01*
X122585310Y-129891328D01*
X122651445Y-129913865D01*
X122690485Y-129958919D01*
X122737715Y-130051614D01*
X122858028Y-130217213D01*
X123002786Y-130361971D01*
X123157749Y-130474556D01*
X123168390Y-130482287D01*
X123284607Y-130541503D01*
X123350776Y-130575218D01*
X123350778Y-130575218D01*
X123350781Y-130575220D01*
X123455137Y-130609127D01*
X123545465Y-130638477D01*
X123646557Y-130654488D01*
X123747648Y-130670500D01*
X123747649Y-130670500D01*
X123952351Y-130670500D01*
X123952352Y-130670500D01*
X124154534Y-130638477D01*
X124349219Y-130575220D01*
X124531610Y-130482287D01*
X124624590Y-130414732D01*
X124697213Y-130361971D01*
X124697215Y-130361968D01*
X124697219Y-130361966D01*
X124841966Y-130217219D01*
X124841968Y-130217215D01*
X124841971Y-130217213D01*
X124962284Y-130051614D01*
X124962286Y-130051611D01*
X124962287Y-130051610D01*
X125009516Y-129958917D01*
X125057489Y-129908123D01*
X125125310Y-129891328D01*
X125191445Y-129913865D01*
X125230485Y-129958919D01*
X125277715Y-130051614D01*
X125398028Y-130217213D01*
X125542786Y-130361971D01*
X125697749Y-130474556D01*
X125708390Y-130482287D01*
X125824607Y-130541503D01*
X125890776Y-130575218D01*
X125890778Y-130575218D01*
X125890781Y-130575220D01*
X125995137Y-130609127D01*
X126085465Y-130638477D01*
X126186557Y-130654488D01*
X126287648Y-130670500D01*
X126287649Y-130670500D01*
X126492351Y-130670500D01*
X126492352Y-130670500D01*
X126694534Y-130638477D01*
X126889219Y-130575220D01*
X127071610Y-130482287D01*
X127164590Y-130414732D01*
X127237213Y-130361971D01*
X127237215Y-130361968D01*
X127237219Y-130361966D01*
X127381966Y-130217219D01*
X127381968Y-130217215D01*
X127381971Y-130217213D01*
X127502284Y-130051614D01*
X127502286Y-130051611D01*
X127502287Y-130051610D01*
X127549516Y-129958917D01*
X127597489Y-129908123D01*
X127665310Y-129891328D01*
X127731445Y-129913865D01*
X127770485Y-129958919D01*
X127817715Y-130051614D01*
X127938028Y-130217213D01*
X128082786Y-130361971D01*
X128237749Y-130474556D01*
X128248390Y-130482287D01*
X128364607Y-130541503D01*
X128430776Y-130575218D01*
X128430778Y-130575218D01*
X128430781Y-130575220D01*
X128535137Y-130609127D01*
X128625465Y-130638477D01*
X128726557Y-130654488D01*
X128827648Y-130670500D01*
X128827649Y-130670500D01*
X129032351Y-130670500D01*
X129032352Y-130670500D01*
X129234534Y-130638477D01*
X129429219Y-130575220D01*
X129611610Y-130482287D01*
X129704590Y-130414732D01*
X129777213Y-130361971D01*
X129777215Y-130361968D01*
X129777219Y-130361966D01*
X129921966Y-130217219D01*
X129921968Y-130217215D01*
X129921971Y-130217213D01*
X130042284Y-130051614D01*
X130042286Y-130051611D01*
X130042287Y-130051610D01*
X130089516Y-129958917D01*
X130137489Y-129908123D01*
X130205310Y-129891328D01*
X130271445Y-129913865D01*
X130310485Y-129958919D01*
X130357715Y-130051614D01*
X130478028Y-130217213D01*
X130622786Y-130361971D01*
X130777749Y-130474556D01*
X130788390Y-130482287D01*
X130904607Y-130541503D01*
X130970776Y-130575218D01*
X130970778Y-130575218D01*
X130970781Y-130575220D01*
X131075137Y-130609127D01*
X131165465Y-130638477D01*
X131266557Y-130654488D01*
X131367648Y-130670500D01*
X131367649Y-130670500D01*
X131572351Y-130670500D01*
X131572352Y-130670500D01*
X131774534Y-130638477D01*
X131969219Y-130575220D01*
X132151610Y-130482287D01*
X132244590Y-130414732D01*
X132317213Y-130361971D01*
X132317215Y-130361968D01*
X132317219Y-130361966D01*
X132461966Y-130217219D01*
X132461968Y-130217215D01*
X132461971Y-130217213D01*
X132582284Y-130051614D01*
X132582286Y-130051611D01*
X132582287Y-130051610D01*
X132629516Y-129958917D01*
X132677489Y-129908123D01*
X132745310Y-129891328D01*
X132811445Y-129913865D01*
X132850485Y-129958919D01*
X132897715Y-130051614D01*
X133018028Y-130217213D01*
X133162786Y-130361971D01*
X133317749Y-130474556D01*
X133328390Y-130482287D01*
X133444607Y-130541503D01*
X133510776Y-130575218D01*
X133510778Y-130575218D01*
X133510781Y-130575220D01*
X133615137Y-130609127D01*
X133705465Y-130638477D01*
X133806557Y-130654488D01*
X133907648Y-130670500D01*
X133907649Y-130670500D01*
X134112351Y-130670500D01*
X134112352Y-130670500D01*
X134314534Y-130638477D01*
X134509219Y-130575220D01*
X134691610Y-130482287D01*
X134784590Y-130414732D01*
X134857213Y-130361971D01*
X134857215Y-130361968D01*
X134857219Y-130361966D01*
X135001966Y-130217219D01*
X135001968Y-130217215D01*
X135001971Y-130217213D01*
X135054732Y-130144590D01*
X135122287Y-130051610D01*
X135215220Y-129869219D01*
X135278477Y-129674534D01*
X135310500Y-129472352D01*
X135310500Y-129267648D01*
X135278477Y-129065466D01*
X135277673Y-129062993D01*
X135215218Y-128870776D01*
X135122419Y-128688650D01*
X135122287Y-128688390D01*
X135114556Y-128677749D01*
X135001971Y-128522786D01*
X134857213Y-128378028D01*
X134691613Y-128257715D01*
X134691612Y-128257714D01*
X134691610Y-128257713D01*
X134634653Y-128228691D01*
X134509223Y-128164781D01*
X134314534Y-128101522D01*
X134139995Y-128073878D01*
X134112352Y-128069500D01*
X133907648Y-128069500D01*
X133883329Y-128073351D01*
X133705465Y-128101522D01*
X133510776Y-128164781D01*
X133328386Y-128257715D01*
X133162786Y-128378028D01*
X133018028Y-128522786D01*
X132897715Y-128688386D01*
X132850485Y-128781080D01*
X132802510Y-128831876D01*
X132734689Y-128848671D01*
X132668554Y-128826134D01*
X132629515Y-128781080D01*
X132582419Y-128688650D01*
X132582287Y-128688390D01*
X132574556Y-128677749D01*
X132461971Y-128522786D01*
X132317213Y-128378028D01*
X132151613Y-128257715D01*
X132151612Y-128257714D01*
X132151610Y-128257713D01*
X132094653Y-128228691D01*
X131969223Y-128164781D01*
X131774534Y-128101522D01*
X131599995Y-128073878D01*
X131572352Y-128069500D01*
X131367648Y-128069500D01*
X131343329Y-128073351D01*
X131165465Y-128101522D01*
X130970776Y-128164781D01*
X130788386Y-128257715D01*
X130622786Y-128378028D01*
X130478028Y-128522786D01*
X130357715Y-128688386D01*
X130310485Y-128781080D01*
X130262510Y-128831876D01*
X130194689Y-128848671D01*
X130128554Y-128826134D01*
X130089515Y-128781080D01*
X130042419Y-128688650D01*
X130042287Y-128688390D01*
X130034556Y-128677749D01*
X129921971Y-128522786D01*
X129777213Y-128378028D01*
X129611613Y-128257715D01*
X129611612Y-128257714D01*
X129611610Y-128257713D01*
X129554653Y-128228691D01*
X129429223Y-128164781D01*
X129234534Y-128101522D01*
X129059995Y-128073878D01*
X129032352Y-128069500D01*
X128827648Y-128069500D01*
X128803329Y-128073351D01*
X128625465Y-128101522D01*
X128430776Y-128164781D01*
X128248386Y-128257715D01*
X128082786Y-128378028D01*
X127938028Y-128522786D01*
X127817715Y-128688386D01*
X127770485Y-128781080D01*
X127722510Y-128831876D01*
X127654689Y-128848671D01*
X127588554Y-128826134D01*
X127549515Y-128781080D01*
X127502419Y-128688650D01*
X127502287Y-128688390D01*
X127494556Y-128677749D01*
X127381971Y-128522786D01*
X127237213Y-128378028D01*
X127071613Y-128257715D01*
X127071612Y-128257714D01*
X127071610Y-128257713D01*
X127014653Y-128228691D01*
X126889223Y-128164781D01*
X126694534Y-128101522D01*
X126519995Y-128073878D01*
X126492352Y-128069500D01*
X126287648Y-128069500D01*
X126263329Y-128073351D01*
X126085465Y-128101522D01*
X125890776Y-128164781D01*
X125708386Y-128257715D01*
X125542786Y-128378028D01*
X125398028Y-128522786D01*
X125277715Y-128688386D01*
X125230485Y-128781080D01*
X125182510Y-128831876D01*
X125114689Y-128848671D01*
X125048554Y-128826134D01*
X125009515Y-128781080D01*
X124962419Y-128688650D01*
X124962287Y-128688390D01*
X124954556Y-128677749D01*
X124841971Y-128522786D01*
X124697213Y-128378028D01*
X124531613Y-128257715D01*
X124531612Y-128257714D01*
X124531610Y-128257713D01*
X124474653Y-128228691D01*
X124349223Y-128164781D01*
X124154534Y-128101522D01*
X123979995Y-128073878D01*
X123952352Y-128069500D01*
X123747648Y-128069500D01*
X123723329Y-128073351D01*
X123545465Y-128101522D01*
X123350776Y-128164781D01*
X123168386Y-128257715D01*
X123002786Y-128378028D01*
X122858028Y-128522786D01*
X122737715Y-128688386D01*
X122690485Y-128781080D01*
X122642510Y-128831876D01*
X122574689Y-128848671D01*
X122508554Y-128826134D01*
X122469515Y-128781080D01*
X122422419Y-128688650D01*
X122422287Y-128688390D01*
X122414556Y-128677749D01*
X122301971Y-128522786D01*
X122157213Y-128378028D01*
X121991613Y-128257715D01*
X121991612Y-128257714D01*
X121991610Y-128257713D01*
X121934653Y-128228691D01*
X121809223Y-128164781D01*
X121614534Y-128101522D01*
X121439995Y-128073878D01*
X121412352Y-128069500D01*
X121207648Y-128069500D01*
X121183329Y-128073351D01*
X121005465Y-128101522D01*
X120810776Y-128164781D01*
X120628386Y-128257715D01*
X120462786Y-128378028D01*
X120318028Y-128522786D01*
X120197715Y-128688386D01*
X120150485Y-128781080D01*
X120102510Y-128831876D01*
X120034689Y-128848671D01*
X119968554Y-128826134D01*
X119929515Y-128781080D01*
X119882419Y-128688650D01*
X119882287Y-128688390D01*
X119874556Y-128677749D01*
X119761971Y-128522786D01*
X119617213Y-128378028D01*
X119451613Y-128257715D01*
X119451612Y-128257714D01*
X119451610Y-128257713D01*
X119394653Y-128228691D01*
X119269223Y-128164781D01*
X119074534Y-128101522D01*
X118899995Y-128073878D01*
X118872352Y-128069500D01*
X118667648Y-128069500D01*
X118643329Y-128073351D01*
X118465465Y-128101522D01*
X118270776Y-128164781D01*
X118088386Y-128257715D01*
X117922786Y-128378028D01*
X117778028Y-128522786D01*
X117657715Y-128688386D01*
X117610485Y-128781080D01*
X117562510Y-128831876D01*
X117494689Y-128848671D01*
X117428554Y-128826134D01*
X117389515Y-128781080D01*
X117342419Y-128688650D01*
X117342287Y-128688390D01*
X117334556Y-128677749D01*
X117221971Y-128522786D01*
X117077213Y-128378028D01*
X116911613Y-128257715D01*
X116911612Y-128257714D01*
X116911610Y-128257713D01*
X116854653Y-128228691D01*
X116729223Y-128164781D01*
X116534534Y-128101522D01*
X116359995Y-128073878D01*
X116332352Y-128069500D01*
X116127648Y-128069500D01*
X116103329Y-128073351D01*
X115925465Y-128101522D01*
X115730776Y-128164781D01*
X115548386Y-128257715D01*
X115382786Y-128378028D01*
X115238028Y-128522786D01*
X115117715Y-128688386D01*
X115070485Y-128781080D01*
X115022510Y-128831876D01*
X114954689Y-128848671D01*
X114888554Y-128826134D01*
X114849515Y-128781080D01*
X114802419Y-128688650D01*
X114802287Y-128688390D01*
X114794556Y-128677749D01*
X114681971Y-128522786D01*
X114537213Y-128378028D01*
X114371613Y-128257715D01*
X114371612Y-128257714D01*
X114371610Y-128257713D01*
X114314653Y-128228691D01*
X114189223Y-128164781D01*
X113994534Y-128101522D01*
X113819995Y-128073878D01*
X113792352Y-128069500D01*
X113587648Y-128069500D01*
X113563329Y-128073351D01*
X113385465Y-128101522D01*
X113190776Y-128164781D01*
X113008386Y-128257715D01*
X112842786Y-128378028D01*
X112698028Y-128522786D01*
X112577715Y-128688386D01*
X112530485Y-128781080D01*
X112482510Y-128831876D01*
X112414689Y-128848671D01*
X112348554Y-128826134D01*
X112309515Y-128781080D01*
X112262419Y-128688650D01*
X112262287Y-128688390D01*
X112254556Y-128677749D01*
X112141971Y-128522786D01*
X111997213Y-128378028D01*
X111831613Y-128257715D01*
X111831612Y-128257714D01*
X111831610Y-128257713D01*
X111774653Y-128228691D01*
X111649223Y-128164781D01*
X111454534Y-128101522D01*
X111279995Y-128073878D01*
X111252352Y-128069500D01*
X111047648Y-128069500D01*
X111023329Y-128073351D01*
X110845465Y-128101522D01*
X110650776Y-128164781D01*
X110468386Y-128257715D01*
X110302786Y-128378028D01*
X110158028Y-128522786D01*
X110037715Y-128688386D01*
X109990485Y-128781080D01*
X109942510Y-128831876D01*
X109874689Y-128848671D01*
X109808554Y-128826134D01*
X109769515Y-128781080D01*
X109722419Y-128688650D01*
X109722287Y-128688390D01*
X109714556Y-128677749D01*
X109601971Y-128522786D01*
X109457213Y-128378028D01*
X109291613Y-128257715D01*
X109291612Y-128257714D01*
X109291610Y-128257713D01*
X109234653Y-128228691D01*
X109109223Y-128164781D01*
X108914534Y-128101522D01*
X108739995Y-128073878D01*
X108712352Y-128069500D01*
X108507648Y-128069500D01*
X108483329Y-128073351D01*
X108305465Y-128101522D01*
X108110776Y-128164781D01*
X107928386Y-128257715D01*
X107762786Y-128378028D01*
X107618028Y-128522786D01*
X107497715Y-128688386D01*
X107450485Y-128781080D01*
X107402510Y-128831876D01*
X107334689Y-128848671D01*
X107268554Y-128826134D01*
X107229515Y-128781080D01*
X107182419Y-128688650D01*
X107182287Y-128688390D01*
X107174556Y-128677749D01*
X107061971Y-128522786D01*
X106917213Y-128378028D01*
X106751613Y-128257715D01*
X106751612Y-128257714D01*
X106751610Y-128257713D01*
X106694653Y-128228691D01*
X106569223Y-128164781D01*
X106374534Y-128101522D01*
X106199995Y-128073878D01*
X106172352Y-128069500D01*
X105967648Y-128069500D01*
X105943329Y-128073351D01*
X105765465Y-128101522D01*
X105570776Y-128164781D01*
X105388386Y-128257715D01*
X105222786Y-128378028D01*
X105078028Y-128522786D01*
X104957715Y-128688386D01*
X104910485Y-128781080D01*
X104862510Y-128831876D01*
X104794689Y-128848671D01*
X104728554Y-128826134D01*
X104689515Y-128781080D01*
X104642419Y-128688650D01*
X104642287Y-128688390D01*
X104634556Y-128677749D01*
X104521971Y-128522786D01*
X104377213Y-128378028D01*
X104211613Y-128257715D01*
X104211612Y-128257714D01*
X104211610Y-128257713D01*
X104154653Y-128228691D01*
X104029223Y-128164781D01*
X103834534Y-128101522D01*
X103659995Y-128073878D01*
X103632352Y-128069500D01*
X103427648Y-128069500D01*
X103403329Y-128073351D01*
X103225465Y-128101522D01*
X103030776Y-128164781D01*
X102848386Y-128257715D01*
X102682786Y-128378028D01*
X102538028Y-128522786D01*
X102417713Y-128688388D01*
X102370203Y-128781630D01*
X102322228Y-128832426D01*
X102254407Y-128849220D01*
X102188272Y-128826682D01*
X102149234Y-128781628D01*
X102101861Y-128688652D01*
X101981582Y-128523105D01*
X101981582Y-128523104D01*
X101836895Y-128378417D01*
X101671349Y-128258140D01*
X101489029Y-128165244D01*
X101294413Y-128102009D01*
X101240000Y-128093390D01*
X101240000Y-128936988D01*
X101182993Y-128904075D01*
X101055826Y-128870000D01*
X100924174Y-128870000D01*
X100797007Y-128904075D01*
X100740000Y-128936988D01*
X100740000Y-128093390D01*
X100685586Y-128102009D01*
X100490970Y-128165244D01*
X100308650Y-128258140D01*
X100143105Y-128378417D01*
X100143104Y-128378417D01*
X99998417Y-128523104D01*
X99998417Y-128523105D01*
X99878140Y-128688650D01*
X99830765Y-128781629D01*
X99782790Y-128832425D01*
X99714969Y-128849220D01*
X99648834Y-128826682D01*
X99609795Y-128781629D01*
X99562419Y-128688650D01*
X99562287Y-128688390D01*
X99554556Y-128677749D01*
X99441971Y-128522786D01*
X99297213Y-128378028D01*
X99131613Y-128257715D01*
X99131612Y-128257714D01*
X99131610Y-128257713D01*
X99074653Y-128228691D01*
X98949223Y-128164781D01*
X98754534Y-128101522D01*
X98579995Y-128073878D01*
X98552352Y-128069500D01*
X98347648Y-128069500D01*
X98323329Y-128073351D01*
X98145465Y-128101522D01*
X97950776Y-128164781D01*
X97768386Y-128257715D01*
X97602786Y-128378028D01*
X97458028Y-128522786D01*
X97337715Y-128688386D01*
X97244781Y-128870776D01*
X97181522Y-129065465D01*
X97149500Y-129267648D01*
X66000500Y-129267648D01*
X66000500Y-124897648D01*
X90699500Y-124897648D01*
X90699500Y-125102351D01*
X90731522Y-125304534D01*
X90794781Y-125499223D01*
X90847328Y-125602351D01*
X90867574Y-125642086D01*
X90887715Y-125681613D01*
X91008028Y-125847213D01*
X91152786Y-125991971D01*
X91307749Y-126104556D01*
X91318390Y-126112287D01*
X91434607Y-126171503D01*
X91500776Y-126205218D01*
X91500778Y-126205218D01*
X91500781Y-126205220D01*
X91605137Y-126239127D01*
X91695465Y-126268477D01*
X91796557Y-126284488D01*
X91897648Y-126300500D01*
X91897649Y-126300500D01*
X92102351Y-126300500D01*
X92102352Y-126300500D01*
X92304534Y-126268477D01*
X92499219Y-126205220D01*
X92681610Y-126112287D01*
X92837231Y-125999223D01*
X92847213Y-125991971D01*
X92847215Y-125991968D01*
X92847219Y-125991966D01*
X92991966Y-125847219D01*
X92991968Y-125847215D01*
X92991971Y-125847213D01*
X93057375Y-125757190D01*
X93112287Y-125681610D01*
X93205220Y-125499219D01*
X93238222Y-125397648D01*
X94199500Y-125397648D01*
X94199500Y-125602351D01*
X94231522Y-125804534D01*
X94294781Y-125999223D01*
X94387715Y-126181613D01*
X94508028Y-126347213D01*
X94652786Y-126491971D01*
X94807749Y-126604556D01*
X94818390Y-126612287D01*
X94934607Y-126671503D01*
X95000776Y-126705218D01*
X95000778Y-126705218D01*
X95000781Y-126705220D01*
X95105137Y-126739127D01*
X95195465Y-126768477D01*
X95296557Y-126784488D01*
X95397648Y-126800500D01*
X95397649Y-126800500D01*
X95602351Y-126800500D01*
X95602352Y-126800500D01*
X95804534Y-126768477D01*
X95999219Y-126705220D01*
X96181610Y-126612287D01*
X96274590Y-126544732D01*
X96347213Y-126491971D01*
X96347215Y-126491968D01*
X96347219Y-126491966D01*
X96491966Y-126347219D01*
X96491968Y-126347215D01*
X96491971Y-126347213D01*
X96595133Y-126205220D01*
X96612287Y-126181610D01*
X96705220Y-125999219D01*
X96768477Y-125804534D01*
X96800500Y-125602352D01*
X96800500Y-125397648D01*
X104359500Y-125397648D01*
X104359500Y-125602351D01*
X104391522Y-125804534D01*
X104454781Y-125999223D01*
X104547715Y-126181613D01*
X104668028Y-126347213D01*
X104812786Y-126491971D01*
X104967749Y-126604556D01*
X104978390Y-126612287D01*
X105094607Y-126671503D01*
X105160776Y-126705218D01*
X105160778Y-126705218D01*
X105160781Y-126705220D01*
X105265137Y-126739127D01*
X105355465Y-126768477D01*
X105456557Y-126784488D01*
X105557648Y-126800500D01*
X105557649Y-126800500D01*
X105762351Y-126800500D01*
X105762352Y-126800500D01*
X105964534Y-126768477D01*
X106159219Y-126705220D01*
X106341610Y-126612287D01*
X106434590Y-126544732D01*
X106507213Y-126491971D01*
X106507215Y-126491968D01*
X106507219Y-126491966D01*
X106651966Y-126347219D01*
X106651968Y-126347215D01*
X106651971Y-126347213D01*
X106755133Y-126205220D01*
X106772287Y-126181610D01*
X106865220Y-125999219D01*
X106922069Y-125824256D01*
X106961507Y-125766581D01*
X107025866Y-125739383D01*
X107094712Y-125751298D01*
X107146188Y-125798542D01*
X107157931Y-125824256D01*
X107214781Y-125999223D01*
X107307715Y-126181613D01*
X107428028Y-126347213D01*
X107572786Y-126491971D01*
X107727749Y-126604556D01*
X107738390Y-126612287D01*
X107854607Y-126671503D01*
X107920776Y-126705218D01*
X107920778Y-126705218D01*
X107920781Y-126705220D01*
X108025137Y-126739127D01*
X108115465Y-126768477D01*
X108216557Y-126784488D01*
X108317648Y-126800500D01*
X108317649Y-126800500D01*
X108522351Y-126800500D01*
X108522352Y-126800500D01*
X108724534Y-126768477D01*
X108919219Y-126705220D01*
X109101610Y-126612287D01*
X109194590Y-126544732D01*
X109267213Y-126491971D01*
X109267215Y-126491968D01*
X109267219Y-126491966D01*
X109411966Y-126347219D01*
X109411968Y-126347215D01*
X109411971Y-126347213D01*
X109515133Y-126205220D01*
X109532287Y-126181610D01*
X109625220Y-125999219D01*
X109688477Y-125804534D01*
X109720500Y-125602352D01*
X109720500Y-125397648D01*
X117279500Y-125397648D01*
X117279500Y-125602351D01*
X117311522Y-125804534D01*
X117374781Y-125999223D01*
X117467715Y-126181613D01*
X117588028Y-126347213D01*
X117732786Y-126491971D01*
X117887749Y-126604556D01*
X117898390Y-126612287D01*
X118014607Y-126671503D01*
X118080776Y-126705218D01*
X118080778Y-126705218D01*
X118080781Y-126705220D01*
X118185137Y-126739127D01*
X118275465Y-126768477D01*
X118376557Y-126784488D01*
X118477648Y-126800500D01*
X118477649Y-126800500D01*
X118682351Y-126800500D01*
X118682352Y-126800500D01*
X118884534Y-126768477D01*
X119079219Y-126705220D01*
X119261610Y-126612287D01*
X119354590Y-126544732D01*
X119427213Y-126491971D01*
X119427215Y-126491968D01*
X119427219Y-126491966D01*
X119571966Y-126347219D01*
X119571968Y-126347215D01*
X119571971Y-126347213D01*
X119675133Y-126205220D01*
X119692287Y-126181610D01*
X119785220Y-125999219D01*
X119848477Y-125804534D01*
X119880500Y-125602352D01*
X119880500Y-125397648D01*
X119848477Y-125195466D01*
X119785220Y-125000781D01*
X119785218Y-125000778D01*
X119785218Y-125000776D01*
X119713534Y-124860090D01*
X119692287Y-124818390D01*
X119685958Y-124809679D01*
X119658239Y-124771526D01*
X119658236Y-124771523D01*
X119571969Y-124652786D01*
X119571966Y-124652781D01*
X119427219Y-124508034D01*
X119427213Y-124508028D01*
X119261613Y-124387715D01*
X119261612Y-124387714D01*
X119261610Y-124387713D01*
X119204653Y-124358691D01*
X119079223Y-124294781D01*
X118884534Y-124231522D01*
X118709995Y-124203878D01*
X118682352Y-124199500D01*
X118477648Y-124199500D01*
X118453329Y-124203351D01*
X118275465Y-124231522D01*
X118080776Y-124294781D01*
X117898386Y-124387715D01*
X117732786Y-124508028D01*
X117588028Y-124652786D01*
X117467715Y-124818386D01*
X117374781Y-125000776D01*
X117311522Y-125195465D01*
X117279500Y-125397648D01*
X109720500Y-125397648D01*
X109688477Y-125195466D01*
X109625220Y-125000781D01*
X109625218Y-125000778D01*
X109625218Y-125000776D01*
X109553534Y-124860090D01*
X109532287Y-124818390D01*
X109524556Y-124807749D01*
X109411971Y-124652786D01*
X109267213Y-124508028D01*
X109101613Y-124387715D01*
X109101612Y-124387714D01*
X109101610Y-124387713D01*
X109044653Y-124358691D01*
X108919223Y-124294781D01*
X108724534Y-124231522D01*
X108549995Y-124203878D01*
X108522352Y-124199500D01*
X108317648Y-124199500D01*
X108293329Y-124203351D01*
X108115465Y-124231522D01*
X107920776Y-124294781D01*
X107738386Y-124387715D01*
X107572786Y-124508028D01*
X107428028Y-124652786D01*
X107307715Y-124818386D01*
X107214781Y-125000776D01*
X107157931Y-125175743D01*
X107118493Y-125233418D01*
X107054134Y-125260616D01*
X106985288Y-125248701D01*
X106933812Y-125201457D01*
X106922069Y-125175743D01*
X106865218Y-125000776D01*
X106793534Y-124860090D01*
X106772287Y-124818390D01*
X106764556Y-124807749D01*
X106651971Y-124652786D01*
X106507213Y-124508028D01*
X106341613Y-124387715D01*
X106341612Y-124387714D01*
X106341610Y-124387713D01*
X106284653Y-124358691D01*
X106159223Y-124294781D01*
X105964534Y-124231522D01*
X105789995Y-124203878D01*
X105762352Y-124199500D01*
X105557648Y-124199500D01*
X105533329Y-124203351D01*
X105355465Y-124231522D01*
X105160776Y-124294781D01*
X104978386Y-124387715D01*
X104812786Y-124508028D01*
X104668028Y-124652786D01*
X104547715Y-124818386D01*
X104454781Y-125000776D01*
X104391522Y-125195465D01*
X104359500Y-125397648D01*
X96800500Y-125397648D01*
X96768477Y-125195466D01*
X96705220Y-125000781D01*
X96705218Y-125000778D01*
X96705218Y-125000776D01*
X96633534Y-124860090D01*
X96612287Y-124818390D01*
X96604556Y-124807749D01*
X96491971Y-124652786D01*
X96347213Y-124508028D01*
X96181613Y-124387715D01*
X96181612Y-124387714D01*
X96181610Y-124387713D01*
X96124653Y-124358691D01*
X95999223Y-124294781D01*
X95804534Y-124231522D01*
X95629995Y-124203878D01*
X95602352Y-124199500D01*
X95397648Y-124199500D01*
X95373329Y-124203351D01*
X95195465Y-124231522D01*
X95000776Y-124294781D01*
X94818386Y-124387715D01*
X94652786Y-124508028D01*
X94508028Y-124652786D01*
X94387715Y-124818386D01*
X94294781Y-125000776D01*
X94231522Y-125195465D01*
X94199500Y-125397648D01*
X93238222Y-125397648D01*
X93268477Y-125304534D01*
X93300500Y-125102352D01*
X93300500Y-124897648D01*
X93280524Y-124771526D01*
X93268477Y-124695465D01*
X93224216Y-124559244D01*
X93205220Y-124500781D01*
X93205218Y-124500778D01*
X93205218Y-124500776D01*
X93147610Y-124387715D01*
X93112287Y-124318390D01*
X93095134Y-124294781D01*
X92991971Y-124152786D01*
X92847213Y-124008028D01*
X92681613Y-123887715D01*
X92681612Y-123887714D01*
X92681610Y-123887713D01*
X92624653Y-123858691D01*
X92499223Y-123794781D01*
X92304534Y-123731522D01*
X92129995Y-123703878D01*
X92102352Y-123699500D01*
X91897648Y-123699500D01*
X91873329Y-123703351D01*
X91695465Y-123731522D01*
X91500776Y-123794781D01*
X91318386Y-123887715D01*
X91152786Y-124008028D01*
X91008028Y-124152786D01*
X90887715Y-124318386D01*
X90794781Y-124500776D01*
X90731522Y-124695465D01*
X90699500Y-124897648D01*
X66000500Y-124897648D01*
X66000500Y-123552155D01*
X126560000Y-123552155D01*
X126560000Y-124250000D01*
X127584722Y-124250000D01*
X127540667Y-124326306D01*
X127510000Y-124440756D01*
X127510000Y-124559244D01*
X127540667Y-124673694D01*
X127584722Y-124750000D01*
X126560000Y-124750000D01*
X126560000Y-125447844D01*
X126566401Y-125507372D01*
X126566403Y-125507379D01*
X126616645Y-125642086D01*
X126616649Y-125642093D01*
X126702809Y-125757187D01*
X126702812Y-125757190D01*
X126817906Y-125843350D01*
X126817913Y-125843354D01*
X126952620Y-125893596D01*
X126952627Y-125893598D01*
X127012155Y-125899999D01*
X127012172Y-125900000D01*
X127710000Y-125900000D01*
X127710000Y-124875277D01*
X127786306Y-124919333D01*
X127900756Y-124950000D01*
X128019244Y-124950000D01*
X128133694Y-124919333D01*
X128210000Y-124875277D01*
X128210000Y-125900000D01*
X128907828Y-125900000D01*
X128907844Y-125899999D01*
X128967372Y-125893598D01*
X128967379Y-125893596D01*
X129102086Y-125843354D01*
X129102093Y-125843350D01*
X129217187Y-125757190D01*
X129217190Y-125757187D01*
X129303350Y-125642093D01*
X129303354Y-125642086D01*
X129333213Y-125562031D01*
X129375084Y-125506097D01*
X129440548Y-125481680D01*
X129508821Y-125496531D01*
X129537076Y-125517683D01*
X129587636Y-125568243D01*
X129587641Y-125568247D01*
X129743192Y-125681260D01*
X129765978Y-125697815D01*
X129882501Y-125757187D01*
X129962393Y-125797895D01*
X129962396Y-125797896D01*
X130043526Y-125824256D01*
X130172049Y-125866015D01*
X130389778Y-125900500D01*
X130389779Y-125900500D01*
X130610221Y-125900500D01*
X130610222Y-125900500D01*
X130827951Y-125866015D01*
X131037606Y-125797895D01*
X131234022Y-125697815D01*
X131412365Y-125568242D01*
X131568242Y-125412365D01*
X131697815Y-125234022D01*
X131797895Y-125037606D01*
X131866015Y-124827951D01*
X131900500Y-124610222D01*
X131900500Y-124389778D01*
X131866015Y-124172049D01*
X131831955Y-124067221D01*
X131797896Y-123962396D01*
X131797895Y-123962393D01*
X131759843Y-123887713D01*
X131697815Y-123765978D01*
X131649516Y-123699500D01*
X131568247Y-123587641D01*
X131568243Y-123587636D01*
X131412363Y-123431756D01*
X131412358Y-123431752D01*
X131234025Y-123302187D01*
X131234024Y-123302186D01*
X131234022Y-123302185D01*
X131171096Y-123270122D01*
X131037606Y-123202104D01*
X131037603Y-123202103D01*
X130827952Y-123133985D01*
X130719086Y-123116742D01*
X130610222Y-123099500D01*
X130389778Y-123099500D01*
X130317201Y-123110995D01*
X130172047Y-123133985D01*
X129962396Y-123202103D01*
X129962393Y-123202104D01*
X129765974Y-123302187D01*
X129587641Y-123431752D01*
X129587636Y-123431756D01*
X129537075Y-123482317D01*
X129475752Y-123515801D01*
X129406060Y-123510816D01*
X129350127Y-123468945D01*
X129333213Y-123437968D01*
X129303354Y-123357913D01*
X129303350Y-123357906D01*
X129217190Y-123242812D01*
X129217187Y-123242809D01*
X129102093Y-123156649D01*
X129102086Y-123156645D01*
X128967379Y-123106403D01*
X128967372Y-123106401D01*
X128907844Y-123100000D01*
X128210000Y-123100000D01*
X128210000Y-124124722D01*
X128133694Y-124080667D01*
X128019244Y-124050000D01*
X127900756Y-124050000D01*
X127786306Y-124080667D01*
X127710000Y-124124722D01*
X127710000Y-123100000D01*
X127012155Y-123100000D01*
X126952627Y-123106401D01*
X126952620Y-123106403D01*
X126817913Y-123156645D01*
X126817906Y-123156649D01*
X126702812Y-123242809D01*
X126702809Y-123242812D01*
X126616649Y-123357906D01*
X126616645Y-123357913D01*
X126566403Y-123492620D01*
X126566401Y-123492627D01*
X126560000Y-123552155D01*
X66000500Y-123552155D01*
X66000500Y-121624500D01*
X66020185Y-121557461D01*
X66072989Y-121511706D01*
X66124500Y-121500500D01*
X139875500Y-121500500D01*
X139942539Y-121520185D01*
G37*
G04 #@! TD.AperFunction*
M02*
