G04 #@! TF.GenerationSoftware,KiCad,Pcbnew,9.0.0*
G04 #@! TF.CreationDate,2025-03-24T14:59:24-06:00*
G04 #@! TF.ProjectId,gc_2_n64,67635f32-5f6e-4363-942e-6b696361645f,rev?*
G04 #@! TF.SameCoordinates,Original*
G04 #@! TF.FileFunction,Legend,Top*
G04 #@! TF.FilePolarity,Positive*
%FSLAX46Y46*%
G04 Gerber Fmt 4.6, Leading zero omitted, Abs format (unit mm)*
G04 Created by KiCad (PCBNEW 9.0.0) date 2025-03-24 14:59:24*
%MOMM*%
%LPD*%
G01*
G04 APERTURE LIST*
%ADD10C,0.150000*%
%ADD11C,0.100000*%
%ADD12C,0.120000*%
%ADD13C,1.600000*%
%ADD14O,1.600000X1.600000*%
%ADD15R,1.600000X1.600000*%
%ADD16C,2.540000*%
%ADD17R,1.800000X1.800000*%
%ADD18C,1.800000*%
%ADD19R,1.700000X1.700000*%
%ADD20O,1.700000X1.700000*%
G04 APERTURE END LIST*
D10*
X92454819Y-130246666D02*
X91978628Y-130579999D01*
X92454819Y-130818094D02*
X91454819Y-130818094D01*
X91454819Y-130818094D02*
X91454819Y-130437142D01*
X91454819Y-130437142D02*
X91502438Y-130341904D01*
X91502438Y-130341904D02*
X91550057Y-130294285D01*
X91550057Y-130294285D02*
X91645295Y-130246666D01*
X91645295Y-130246666D02*
X91788152Y-130246666D01*
X91788152Y-130246666D02*
X91883390Y-130294285D01*
X91883390Y-130294285D02*
X91931009Y-130341904D01*
X91931009Y-130341904D02*
X91978628Y-130437142D01*
X91978628Y-130437142D02*
X91978628Y-130818094D01*
X92454819Y-129294285D02*
X92454819Y-129865713D01*
X92454819Y-129579999D02*
X91454819Y-129579999D01*
X91454819Y-129579999D02*
X91597676Y-129675237D01*
X91597676Y-129675237D02*
X91692914Y-129770475D01*
X91692914Y-129770475D02*
X91740533Y-129865713D01*
X92454819Y-158586666D02*
X91978628Y-158919999D01*
X92454819Y-159158094D02*
X91454819Y-159158094D01*
X91454819Y-159158094D02*
X91454819Y-158777142D01*
X91454819Y-158777142D02*
X91502438Y-158681904D01*
X91502438Y-158681904D02*
X91550057Y-158634285D01*
X91550057Y-158634285D02*
X91645295Y-158586666D01*
X91645295Y-158586666D02*
X91788152Y-158586666D01*
X91788152Y-158586666D02*
X91883390Y-158634285D01*
X91883390Y-158634285D02*
X91931009Y-158681904D01*
X91931009Y-158681904D02*
X91978628Y-158777142D01*
X91978628Y-158777142D02*
X91978628Y-159158094D01*
X91788152Y-157729523D02*
X92454819Y-157729523D01*
X91407200Y-157967618D02*
X92121485Y-158205713D01*
X92121485Y-158205713D02*
X92121485Y-157586666D01*
X116785714Y-137169104D02*
X117261904Y-137169104D01*
X116690476Y-137454819D02*
X117023809Y-136454819D01*
X117023809Y-136454819D02*
X117357142Y-137454819D01*
X118214285Y-137454819D02*
X117642857Y-137454819D01*
X117928571Y-137454819D02*
X117928571Y-136454819D01*
X117928571Y-136454819D02*
X117833333Y-136597676D01*
X117833333Y-136597676D02*
X117738095Y-136692914D01*
X117738095Y-136692914D02*
X117642857Y-136740533D01*
X134248095Y-136444819D02*
X134248095Y-137254342D01*
X134248095Y-137254342D02*
X134295714Y-137349580D01*
X134295714Y-137349580D02*
X134343333Y-137397200D01*
X134343333Y-137397200D02*
X134438571Y-137444819D01*
X134438571Y-137444819D02*
X134629047Y-137444819D01*
X134629047Y-137444819D02*
X134724285Y-137397200D01*
X134724285Y-137397200D02*
X134771904Y-137349580D01*
X134771904Y-137349580D02*
X134819523Y-137254342D01*
X134819523Y-137254342D02*
X134819523Y-136444819D01*
X135248095Y-137397200D02*
X135390952Y-137444819D01*
X135390952Y-137444819D02*
X135629047Y-137444819D01*
X135629047Y-137444819D02*
X135724285Y-137397200D01*
X135724285Y-137397200D02*
X135771904Y-137349580D01*
X135771904Y-137349580D02*
X135819523Y-137254342D01*
X135819523Y-137254342D02*
X135819523Y-137159104D01*
X135819523Y-137159104D02*
X135771904Y-137063866D01*
X135771904Y-137063866D02*
X135724285Y-137016247D01*
X135724285Y-137016247D02*
X135629047Y-136968628D01*
X135629047Y-136968628D02*
X135438571Y-136921009D01*
X135438571Y-136921009D02*
X135343333Y-136873390D01*
X135343333Y-136873390D02*
X135295714Y-136825771D01*
X135295714Y-136825771D02*
X135248095Y-136730533D01*
X135248095Y-136730533D02*
X135248095Y-136635295D01*
X135248095Y-136635295D02*
X135295714Y-136540057D01*
X135295714Y-136540057D02*
X135343333Y-136492438D01*
X135343333Y-136492438D02*
X135438571Y-136444819D01*
X135438571Y-136444819D02*
X135676666Y-136444819D01*
X135676666Y-136444819D02*
X135819523Y-136492438D01*
X136581428Y-136921009D02*
X136724285Y-136968628D01*
X136724285Y-136968628D02*
X136771904Y-137016247D01*
X136771904Y-137016247D02*
X136819523Y-137111485D01*
X136819523Y-137111485D02*
X136819523Y-137254342D01*
X136819523Y-137254342D02*
X136771904Y-137349580D01*
X136771904Y-137349580D02*
X136724285Y-137397200D01*
X136724285Y-137397200D02*
X136629047Y-137444819D01*
X136629047Y-137444819D02*
X136248095Y-137444819D01*
X136248095Y-137444819D02*
X136248095Y-136444819D01*
X136248095Y-136444819D02*
X136581428Y-136444819D01*
X136581428Y-136444819D02*
X136676666Y-136492438D01*
X136676666Y-136492438D02*
X136724285Y-136540057D01*
X136724285Y-136540057D02*
X136771904Y-136635295D01*
X136771904Y-136635295D02*
X136771904Y-136730533D01*
X136771904Y-136730533D02*
X136724285Y-136825771D01*
X136724285Y-136825771D02*
X136676666Y-136873390D01*
X136676666Y-136873390D02*
X136581428Y-136921009D01*
X136581428Y-136921009D02*
X136248095Y-136921009D01*
D11*
X112095238Y-155933609D02*
X112238095Y-155981228D01*
X112238095Y-155981228D02*
X112285714Y-156028847D01*
X112285714Y-156028847D02*
X112333333Y-156124085D01*
X112333333Y-156124085D02*
X112333333Y-156266942D01*
X112333333Y-156266942D02*
X112285714Y-156362180D01*
X112285714Y-156362180D02*
X112238095Y-156409800D01*
X112238095Y-156409800D02*
X112142857Y-156457419D01*
X112142857Y-156457419D02*
X111761905Y-156457419D01*
X111761905Y-156457419D02*
X111761905Y-155457419D01*
X111761905Y-155457419D02*
X112095238Y-155457419D01*
X112095238Y-155457419D02*
X112190476Y-155505038D01*
X112190476Y-155505038D02*
X112238095Y-155552657D01*
X112238095Y-155552657D02*
X112285714Y-155647895D01*
X112285714Y-155647895D02*
X112285714Y-155743133D01*
X112285714Y-155743133D02*
X112238095Y-155838371D01*
X112238095Y-155838371D02*
X112190476Y-155885990D01*
X112190476Y-155885990D02*
X112095238Y-155933609D01*
X112095238Y-155933609D02*
X111761905Y-155933609D01*
X113333333Y-156362180D02*
X113285714Y-156409800D01*
X113285714Y-156409800D02*
X113142857Y-156457419D01*
X113142857Y-156457419D02*
X113047619Y-156457419D01*
X113047619Y-156457419D02*
X112904762Y-156409800D01*
X112904762Y-156409800D02*
X112809524Y-156314561D01*
X112809524Y-156314561D02*
X112761905Y-156219323D01*
X112761905Y-156219323D02*
X112714286Y-156028847D01*
X112714286Y-156028847D02*
X112714286Y-155885990D01*
X112714286Y-155885990D02*
X112761905Y-155695514D01*
X112761905Y-155695514D02*
X112809524Y-155600276D01*
X112809524Y-155600276D02*
X112904762Y-155505038D01*
X112904762Y-155505038D02*
X113047619Y-155457419D01*
X113047619Y-155457419D02*
X113142857Y-155457419D01*
X113142857Y-155457419D02*
X113285714Y-155505038D01*
X113285714Y-155505038D02*
X113333333Y-155552657D01*
X114285714Y-156457419D02*
X113714286Y-156457419D01*
X114000000Y-156457419D02*
X114000000Y-155457419D01*
X114000000Y-155457419D02*
X113904762Y-155600276D01*
X113904762Y-155600276D02*
X113809524Y-155695514D01*
X113809524Y-155695514D02*
X113714286Y-155743133D01*
D10*
X100413333Y-125954819D02*
X100080000Y-125478628D01*
X99841905Y-125954819D02*
X99841905Y-124954819D01*
X99841905Y-124954819D02*
X100222857Y-124954819D01*
X100222857Y-124954819D02*
X100318095Y-125002438D01*
X100318095Y-125002438D02*
X100365714Y-125050057D01*
X100365714Y-125050057D02*
X100413333Y-125145295D01*
X100413333Y-125145295D02*
X100413333Y-125288152D01*
X100413333Y-125288152D02*
X100365714Y-125383390D01*
X100365714Y-125383390D02*
X100318095Y-125431009D01*
X100318095Y-125431009D02*
X100222857Y-125478628D01*
X100222857Y-125478628D02*
X99841905Y-125478628D01*
X100746667Y-124954819D02*
X101365714Y-124954819D01*
X101365714Y-124954819D02*
X101032381Y-125335771D01*
X101032381Y-125335771D02*
X101175238Y-125335771D01*
X101175238Y-125335771D02*
X101270476Y-125383390D01*
X101270476Y-125383390D02*
X101318095Y-125431009D01*
X101318095Y-125431009D02*
X101365714Y-125526247D01*
X101365714Y-125526247D02*
X101365714Y-125764342D01*
X101365714Y-125764342D02*
X101318095Y-125859580D01*
X101318095Y-125859580D02*
X101270476Y-125907200D01*
X101270476Y-125907200D02*
X101175238Y-125954819D01*
X101175238Y-125954819D02*
X100889524Y-125954819D01*
X100889524Y-125954819D02*
X100794286Y-125907200D01*
X100794286Y-125907200D02*
X100746667Y-125859580D01*
X128496905Y-123454819D02*
X128496905Y-122454819D01*
X128496905Y-122454819D02*
X128735000Y-122454819D01*
X128735000Y-122454819D02*
X128877857Y-122502438D01*
X128877857Y-122502438D02*
X128973095Y-122597676D01*
X128973095Y-122597676D02*
X129020714Y-122692914D01*
X129020714Y-122692914D02*
X129068333Y-122883390D01*
X129068333Y-122883390D02*
X129068333Y-123026247D01*
X129068333Y-123026247D02*
X129020714Y-123216723D01*
X129020714Y-123216723D02*
X128973095Y-123311961D01*
X128973095Y-123311961D02*
X128877857Y-123407200D01*
X128877857Y-123407200D02*
X128735000Y-123454819D01*
X128735000Y-123454819D02*
X128496905Y-123454819D01*
X130020714Y-123454819D02*
X129449286Y-123454819D01*
X129735000Y-123454819D02*
X129735000Y-122454819D01*
X129735000Y-122454819D02*
X129639762Y-122597676D01*
X129639762Y-122597676D02*
X129544524Y-122692914D01*
X129544524Y-122692914D02*
X129449286Y-122740533D01*
X88788152Y-150857142D02*
X89454819Y-150857142D01*
X88883390Y-150857142D02*
X88835771Y-150809523D01*
X88835771Y-150809523D02*
X88788152Y-150714285D01*
X88788152Y-150714285D02*
X88788152Y-150571428D01*
X88788152Y-150571428D02*
X88835771Y-150476190D01*
X88835771Y-150476190D02*
X88931009Y-150428571D01*
X88931009Y-150428571D02*
X89454819Y-150428571D01*
X88454819Y-149523809D02*
X88454819Y-149714285D01*
X88454819Y-149714285D02*
X88502438Y-149809523D01*
X88502438Y-149809523D02*
X88550057Y-149857142D01*
X88550057Y-149857142D02*
X88692914Y-149952380D01*
X88692914Y-149952380D02*
X88883390Y-149999999D01*
X88883390Y-149999999D02*
X89264342Y-149999999D01*
X89264342Y-149999999D02*
X89359580Y-149952380D01*
X89359580Y-149952380D02*
X89407200Y-149904761D01*
X89407200Y-149904761D02*
X89454819Y-149809523D01*
X89454819Y-149809523D02*
X89454819Y-149619047D01*
X89454819Y-149619047D02*
X89407200Y-149523809D01*
X89407200Y-149523809D02*
X89359580Y-149476190D01*
X89359580Y-149476190D02*
X89264342Y-149428571D01*
X89264342Y-149428571D02*
X89026247Y-149428571D01*
X89026247Y-149428571D02*
X88931009Y-149476190D01*
X88931009Y-149476190D02*
X88883390Y-149523809D01*
X88883390Y-149523809D02*
X88835771Y-149619047D01*
X88835771Y-149619047D02*
X88835771Y-149809523D01*
X88835771Y-149809523D02*
X88883390Y-149904761D01*
X88883390Y-149904761D02*
X88931009Y-149952380D01*
X88931009Y-149952380D02*
X89026247Y-149999999D01*
X88788152Y-148571428D02*
X89454819Y-148571428D01*
X88407200Y-148809523D02*
X89121485Y-149047618D01*
X89121485Y-149047618D02*
X89121485Y-148428571D01*
X89550057Y-148285714D02*
X89550057Y-147523809D01*
X88788152Y-147285713D02*
X89788152Y-147285713D01*
X88835771Y-147285713D02*
X88788152Y-147190475D01*
X88788152Y-147190475D02*
X88788152Y-146999999D01*
X88788152Y-146999999D02*
X88835771Y-146904761D01*
X88835771Y-146904761D02*
X88883390Y-146857142D01*
X88883390Y-146857142D02*
X88978628Y-146809523D01*
X88978628Y-146809523D02*
X89264342Y-146809523D01*
X89264342Y-146809523D02*
X89359580Y-146857142D01*
X89359580Y-146857142D02*
X89407200Y-146904761D01*
X89407200Y-146904761D02*
X89454819Y-146999999D01*
X89454819Y-146999999D02*
X89454819Y-147190475D01*
X89454819Y-147190475D02*
X89407200Y-147285713D01*
X89454819Y-146380951D02*
X88788152Y-146380951D01*
X88454819Y-146380951D02*
X88502438Y-146428570D01*
X88502438Y-146428570D02*
X88550057Y-146380951D01*
X88550057Y-146380951D02*
X88502438Y-146333332D01*
X88502438Y-146333332D02*
X88454819Y-146380951D01*
X88454819Y-146380951D02*
X88550057Y-146380951D01*
X88788152Y-145904761D02*
X89454819Y-145904761D01*
X88883390Y-145904761D02*
X88835771Y-145857142D01*
X88835771Y-145857142D02*
X88788152Y-145761904D01*
X88788152Y-145761904D02*
X88788152Y-145619047D01*
X88788152Y-145619047D02*
X88835771Y-145523809D01*
X88835771Y-145523809D02*
X88931009Y-145476190D01*
X88931009Y-145476190D02*
X89454819Y-145476190D01*
X89454819Y-144857142D02*
X89407200Y-144952380D01*
X89407200Y-144952380D02*
X89359580Y-144999999D01*
X89359580Y-144999999D02*
X89264342Y-145047618D01*
X89264342Y-145047618D02*
X88978628Y-145047618D01*
X88978628Y-145047618D02*
X88883390Y-144999999D01*
X88883390Y-144999999D02*
X88835771Y-144952380D01*
X88835771Y-144952380D02*
X88788152Y-144857142D01*
X88788152Y-144857142D02*
X88788152Y-144714285D01*
X88788152Y-144714285D02*
X88835771Y-144619047D01*
X88835771Y-144619047D02*
X88883390Y-144571428D01*
X88883390Y-144571428D02*
X88978628Y-144523809D01*
X88978628Y-144523809D02*
X89264342Y-144523809D01*
X89264342Y-144523809D02*
X89359580Y-144571428D01*
X89359580Y-144571428D02*
X89407200Y-144619047D01*
X89407200Y-144619047D02*
X89454819Y-144714285D01*
X89454819Y-144714285D02*
X89454819Y-144857142D01*
X88788152Y-143666666D02*
X89454819Y-143666666D01*
X88788152Y-144095237D02*
X89311961Y-144095237D01*
X89311961Y-144095237D02*
X89407200Y-144047618D01*
X89407200Y-144047618D02*
X89454819Y-143952380D01*
X89454819Y-143952380D02*
X89454819Y-143809523D01*
X89454819Y-143809523D02*
X89407200Y-143714285D01*
X89407200Y-143714285D02*
X89359580Y-143666666D01*
X88788152Y-143333332D02*
X88788152Y-142952380D01*
X88454819Y-143190475D02*
X89311961Y-143190475D01*
X89311961Y-143190475D02*
X89407200Y-143142856D01*
X89407200Y-143142856D02*
X89454819Y-143047618D01*
X89454819Y-143047618D02*
X89454819Y-142952380D01*
X89454819Y-142095237D02*
X89454819Y-142666665D01*
X89454819Y-142380951D02*
X88454819Y-142380951D01*
X88454819Y-142380951D02*
X88597676Y-142476189D01*
X88597676Y-142476189D02*
X88692914Y-142571427D01*
X88692914Y-142571427D02*
X88740533Y-142666665D01*
X136788152Y-159414762D02*
X137597676Y-159414762D01*
X137597676Y-159414762D02*
X137692914Y-159462381D01*
X137692914Y-159462381D02*
X137740533Y-159510000D01*
X137740533Y-159510000D02*
X137788152Y-159605238D01*
X137788152Y-159605238D02*
X137788152Y-159748095D01*
X137788152Y-159748095D02*
X137740533Y-159843333D01*
X137407200Y-159414762D02*
X137454819Y-159510000D01*
X137454819Y-159510000D02*
X137454819Y-159700476D01*
X137454819Y-159700476D02*
X137407200Y-159795714D01*
X137407200Y-159795714D02*
X137359580Y-159843333D01*
X137359580Y-159843333D02*
X137264342Y-159890952D01*
X137264342Y-159890952D02*
X136978628Y-159890952D01*
X136978628Y-159890952D02*
X136883390Y-159843333D01*
X136883390Y-159843333D02*
X136835771Y-159795714D01*
X136835771Y-159795714D02*
X136788152Y-159700476D01*
X136788152Y-159700476D02*
X136788152Y-159510000D01*
X136788152Y-159510000D02*
X136835771Y-159414762D01*
X137407200Y-158510000D02*
X137454819Y-158605238D01*
X137454819Y-158605238D02*
X137454819Y-158795714D01*
X137454819Y-158795714D02*
X137407200Y-158890952D01*
X137407200Y-158890952D02*
X137359580Y-158938571D01*
X137359580Y-158938571D02*
X137264342Y-158986190D01*
X137264342Y-158986190D02*
X136978628Y-158986190D01*
X136978628Y-158986190D02*
X136883390Y-158938571D01*
X136883390Y-158938571D02*
X136835771Y-158890952D01*
X136835771Y-158890952D02*
X136788152Y-158795714D01*
X136788152Y-158795714D02*
X136788152Y-158605238D01*
X136788152Y-158605238D02*
X136835771Y-158510000D01*
X137550057Y-158319524D02*
X137550057Y-157557619D01*
X136788152Y-157319523D02*
X137788152Y-157319523D01*
X136835771Y-157319523D02*
X136788152Y-157224285D01*
X136788152Y-157224285D02*
X136788152Y-157033809D01*
X136788152Y-157033809D02*
X136835771Y-156938571D01*
X136835771Y-156938571D02*
X136883390Y-156890952D01*
X136883390Y-156890952D02*
X136978628Y-156843333D01*
X136978628Y-156843333D02*
X137264342Y-156843333D01*
X137264342Y-156843333D02*
X137359580Y-156890952D01*
X137359580Y-156890952D02*
X137407200Y-156938571D01*
X137407200Y-156938571D02*
X137454819Y-157033809D01*
X137454819Y-157033809D02*
X137454819Y-157224285D01*
X137454819Y-157224285D02*
X137407200Y-157319523D01*
X137454819Y-156414761D02*
X136788152Y-156414761D01*
X136454819Y-156414761D02*
X136502438Y-156462380D01*
X136502438Y-156462380D02*
X136550057Y-156414761D01*
X136550057Y-156414761D02*
X136502438Y-156367142D01*
X136502438Y-156367142D02*
X136454819Y-156414761D01*
X136454819Y-156414761D02*
X136550057Y-156414761D01*
X136788152Y-155938571D02*
X137454819Y-155938571D01*
X136883390Y-155938571D02*
X136835771Y-155890952D01*
X136835771Y-155890952D02*
X136788152Y-155795714D01*
X136788152Y-155795714D02*
X136788152Y-155652857D01*
X136788152Y-155652857D02*
X136835771Y-155557619D01*
X136835771Y-155557619D02*
X136931009Y-155510000D01*
X136931009Y-155510000D02*
X137454819Y-155510000D01*
X137454819Y-154890952D02*
X137407200Y-154986190D01*
X137407200Y-154986190D02*
X137359580Y-155033809D01*
X137359580Y-155033809D02*
X137264342Y-155081428D01*
X137264342Y-155081428D02*
X136978628Y-155081428D01*
X136978628Y-155081428D02*
X136883390Y-155033809D01*
X136883390Y-155033809D02*
X136835771Y-154986190D01*
X136835771Y-154986190D02*
X136788152Y-154890952D01*
X136788152Y-154890952D02*
X136788152Y-154748095D01*
X136788152Y-154748095D02*
X136835771Y-154652857D01*
X136835771Y-154652857D02*
X136883390Y-154605238D01*
X136883390Y-154605238D02*
X136978628Y-154557619D01*
X136978628Y-154557619D02*
X137264342Y-154557619D01*
X137264342Y-154557619D02*
X137359580Y-154605238D01*
X137359580Y-154605238D02*
X137407200Y-154652857D01*
X137407200Y-154652857D02*
X137454819Y-154748095D01*
X137454819Y-154748095D02*
X137454819Y-154890952D01*
X136788152Y-153700476D02*
X137454819Y-153700476D01*
X136788152Y-154129047D02*
X137311961Y-154129047D01*
X137311961Y-154129047D02*
X137407200Y-154081428D01*
X137407200Y-154081428D02*
X137454819Y-153986190D01*
X137454819Y-153986190D02*
X137454819Y-153843333D01*
X137454819Y-153843333D02*
X137407200Y-153748095D01*
X137407200Y-153748095D02*
X137359580Y-153700476D01*
X136788152Y-153367142D02*
X136788152Y-152986190D01*
X136454819Y-153224285D02*
X137311961Y-153224285D01*
X137311961Y-153224285D02*
X137407200Y-153176666D01*
X137407200Y-153176666D02*
X137454819Y-153081428D01*
X137454819Y-153081428D02*
X137454819Y-152986190D01*
X137454819Y-152129047D02*
X137454819Y-152700475D01*
X137454819Y-152414761D02*
X136454819Y-152414761D01*
X136454819Y-152414761D02*
X136597676Y-152509999D01*
X136597676Y-152509999D02*
X136692914Y-152605237D01*
X136692914Y-152605237D02*
X136740533Y-152700475D01*
X113333333Y-125954819D02*
X113000000Y-125478628D01*
X112761905Y-125954819D02*
X112761905Y-124954819D01*
X112761905Y-124954819D02*
X113142857Y-124954819D01*
X113142857Y-124954819D02*
X113238095Y-125002438D01*
X113238095Y-125002438D02*
X113285714Y-125050057D01*
X113285714Y-125050057D02*
X113333333Y-125145295D01*
X113333333Y-125145295D02*
X113333333Y-125288152D01*
X113333333Y-125288152D02*
X113285714Y-125383390D01*
X113285714Y-125383390D02*
X113238095Y-125431009D01*
X113238095Y-125431009D02*
X113142857Y-125478628D01*
X113142857Y-125478628D02*
X112761905Y-125478628D01*
X113714286Y-125050057D02*
X113761905Y-125002438D01*
X113761905Y-125002438D02*
X113857143Y-124954819D01*
X113857143Y-124954819D02*
X114095238Y-124954819D01*
X114095238Y-124954819D02*
X114190476Y-125002438D01*
X114190476Y-125002438D02*
X114238095Y-125050057D01*
X114238095Y-125050057D02*
X114285714Y-125145295D01*
X114285714Y-125145295D02*
X114285714Y-125240533D01*
X114285714Y-125240533D02*
X114238095Y-125383390D01*
X114238095Y-125383390D02*
X113666667Y-125954819D01*
X113666667Y-125954819D02*
X114285714Y-125954819D01*
D12*
X90630000Y-126810000D02*
X90630000Y-133350000D01*
X90630000Y-133350000D02*
X93370000Y-133350000D01*
X92000000Y-126040000D02*
X92000000Y-126810000D01*
X92000000Y-134120000D02*
X92000000Y-133350000D01*
X93370000Y-126810000D02*
X90630000Y-126810000D01*
X93370000Y-133350000D02*
X93370000Y-126810000D01*
X90630000Y-155150000D02*
X90630000Y-161690000D01*
X90630000Y-161690000D02*
X93370000Y-161690000D01*
X92000000Y-154380000D02*
X92000000Y-155150000D01*
X92000000Y-162460000D02*
X92000000Y-161690000D01*
X93370000Y-155150000D02*
X90630000Y-155150000D01*
X93370000Y-161690000D02*
X93370000Y-155150000D01*
X94510000Y-127970000D02*
X94510000Y-146010000D01*
X94510000Y-146010000D02*
X97180000Y-146010000D01*
X97180000Y-130640000D02*
X97180000Y-127970000D01*
X97180000Y-130640000D02*
X135280000Y-130640000D01*
X97180000Y-143340000D02*
X97180000Y-146010000D01*
X99720000Y-143340000D02*
X97180000Y-143340000D01*
X99720000Y-143340000D02*
X99720000Y-146010000D01*
X99720000Y-143340000D02*
X135280000Y-143340000D01*
X99720000Y-146010000D02*
X137950000Y-146010000D01*
X130070000Y-133050000D02*
X140490000Y-133050000D01*
X130070000Y-140930000D02*
X130070000Y-133050000D01*
X135280000Y-130640000D02*
X135280000Y-127970000D01*
X135280000Y-143340000D02*
X135280000Y-146010000D01*
X137950000Y-127970000D02*
X94510000Y-127970000D01*
X137950000Y-127970000D02*
X137950000Y-133050000D01*
X137950000Y-146010000D02*
X137950000Y-140930000D01*
X140490000Y-133050000D02*
X140490000Y-140930000D01*
X140490000Y-140930000D02*
X130070000Y-140930000D01*
D11*
X131400000Y-164500000D02*
X94400000Y-164500000D01*
X94400000Y-147300000D01*
X131400000Y-147300000D01*
X131400000Y-164500000D01*
D12*
X96540000Y-125500000D02*
X97310000Y-125500000D01*
X97310000Y-124130000D02*
X97310000Y-126870000D01*
X97310000Y-126870000D02*
X103850000Y-126870000D01*
X103850000Y-124130000D02*
X97310000Y-124130000D01*
X103850000Y-126870000D02*
X103850000Y-124130000D01*
X104620000Y-125500000D02*
X103850000Y-125500000D01*
X126670000Y-122955000D02*
X126670000Y-126045000D01*
X126670000Y-122955170D02*
G75*
G02*
X132220000Y-124499952I2560000J-1544830D01*
G01*
X132220000Y-124500048D02*
G75*
G02*
X126670000Y-126044830I-2990000J48D01*
G01*
X131730000Y-124500000D02*
G75*
G02*
X126730000Y-124500000I-2500000J0D01*
G01*
X126730000Y-124500000D02*
G75*
G02*
X131730000Y-124500000I2500000J0D01*
G01*
X90670000Y-145270000D02*
X90670000Y-150410000D01*
X90670000Y-145270000D02*
X93330000Y-145270000D01*
X90670000Y-150410000D02*
X93330000Y-150410000D01*
X92000000Y-142670000D02*
X93330000Y-142670000D01*
X93330000Y-142670000D02*
X93330000Y-144000000D01*
X93330000Y-145270000D02*
X93330000Y-150410000D01*
X132670000Y-152230000D02*
X132670000Y-162450000D01*
X132670000Y-152230000D02*
X135330000Y-152230000D01*
X132670000Y-162450000D02*
X135330000Y-162450000D01*
X134000000Y-149630000D02*
X135330000Y-149630000D01*
X135330000Y-149630000D02*
X135330000Y-150960000D01*
X135330000Y-152230000D02*
X135330000Y-162450000D01*
X109460000Y-125500000D02*
X110230000Y-125500000D01*
X110230000Y-124130000D02*
X110230000Y-126870000D01*
X110230000Y-126870000D02*
X116770000Y-126870000D01*
X116770000Y-124130000D02*
X110230000Y-124130000D01*
X116770000Y-126870000D02*
X116770000Y-124130000D01*
X117540000Y-125500000D02*
X116770000Y-125500000D01*
%LPC*%
D13*
X92000000Y-125000000D03*
D14*
X92000000Y-135160000D03*
D13*
X92000000Y-153340000D03*
D14*
X92000000Y-163500000D03*
D15*
X98450000Y-144610000D03*
D14*
X100990000Y-144610000D03*
X103530000Y-144610000D03*
X106070000Y-144610000D03*
X108610000Y-144610000D03*
X111150000Y-144610000D03*
X113690000Y-144610000D03*
X116230000Y-144610000D03*
X118770000Y-144610000D03*
X121310000Y-144610000D03*
X123850000Y-144610000D03*
X126390000Y-144610000D03*
X128930000Y-144610000D03*
X131470000Y-144610000D03*
X134010000Y-144610000D03*
X134010000Y-129370000D03*
X131470000Y-129370000D03*
X128930000Y-129370000D03*
X126390000Y-129370000D03*
X123850000Y-129370000D03*
X121310000Y-129370000D03*
X118770000Y-129370000D03*
X116230000Y-129370000D03*
X113690000Y-129370000D03*
X111150000Y-129370000D03*
X108610000Y-129370000D03*
X106070000Y-129370000D03*
X103530000Y-129370000D03*
X100990000Y-129370000D03*
X98450000Y-129370000D03*
D16*
X97800000Y-159200000D03*
X97800000Y-152500000D03*
X128300000Y-159200000D03*
X128300000Y-152500000D03*
D13*
X105660000Y-125500000D03*
D14*
X95500000Y-125500000D03*
D17*
X127960000Y-124500000D03*
D18*
X130500000Y-124500000D03*
D19*
X92000000Y-144000000D03*
D20*
X92000000Y-146540000D03*
X92000000Y-149080000D03*
D19*
X134000000Y-150960000D03*
D20*
X134000000Y-153500000D03*
X134000000Y-156040000D03*
X134000000Y-158580000D03*
X134000000Y-161120000D03*
D13*
X108420000Y-125500000D03*
D14*
X118580000Y-125500000D03*
%LPD*%
M02*
