G04 #@! TF.GenerationSoftware,KiCad,Pcbnew,9.0.0*
G04 #@! TF.CreationDate,2025-03-24T14:59:23-06:00*
G04 #@! TF.ProjectId,gc_2_n64,67635f32-5f6e-4363-942e-6b696361645f,rev?*
G04 #@! TF.SameCoordinates,Original*
G04 #@! TF.FileFunction,Copper,L1,Top*
G04 #@! TF.FilePolarity,Positive*
%FSLAX46Y46*%
G04 Gerber Fmt 4.6, Leading zero omitted, Abs format (unit mm)*
G04 Created by KiCad (PCBNEW 9.0.0) date 2025-03-24 14:59:23*
%MOMM*%
%LPD*%
G01*
G04 APERTURE LIST*
G04 #@! TA.AperFunction,ComponentPad*
%ADD10C,1.600000*%
G04 #@! TD*
G04 #@! TA.AperFunction,ComponentPad*
%ADD11O,1.600000X1.600000*%
G04 #@! TD*
G04 #@! TA.AperFunction,ComponentPad*
%ADD12R,1.600000X1.600000*%
G04 #@! TD*
G04 #@! TA.AperFunction,ComponentPad*
%ADD13C,2.540000*%
G04 #@! TD*
G04 #@! TA.AperFunction,ComponentPad*
%ADD14R,1.800000X1.800000*%
G04 #@! TD*
G04 #@! TA.AperFunction,ComponentPad*
%ADD15C,1.800000*%
G04 #@! TD*
G04 #@! TA.AperFunction,ComponentPad*
%ADD16R,1.700000X1.700000*%
G04 #@! TD*
G04 #@! TA.AperFunction,ComponentPad*
%ADD17O,1.700000X1.700000*%
G04 #@! TD*
G04 #@! TA.AperFunction,Conductor*
%ADD18C,0.200000*%
G04 #@! TD*
G04 APERTURE END LIST*
D10*
X92000000Y-125000000D03*
D11*
X92000000Y-135160000D03*
D10*
X92000000Y-153340000D03*
D11*
X92000000Y-163500000D03*
D12*
X98450000Y-144610000D03*
D11*
X100990000Y-144610000D03*
X103530000Y-144610000D03*
X106070000Y-144610000D03*
X108610000Y-144610000D03*
X111150000Y-144610000D03*
X113690000Y-144610000D03*
X116230000Y-144610000D03*
X118770000Y-144610000D03*
X121310000Y-144610000D03*
X123850000Y-144610000D03*
X126390000Y-144610000D03*
X128930000Y-144610000D03*
X131470000Y-144610000D03*
X134010000Y-144610000D03*
X134010000Y-129370000D03*
X131470000Y-129370000D03*
X128930000Y-129370000D03*
X126390000Y-129370000D03*
X123850000Y-129370000D03*
X121310000Y-129370000D03*
X118770000Y-129370000D03*
X116230000Y-129370000D03*
X113690000Y-129370000D03*
X111150000Y-129370000D03*
X108610000Y-129370000D03*
X106070000Y-129370000D03*
X103530000Y-129370000D03*
X100990000Y-129370000D03*
X98450000Y-129370000D03*
D13*
X97800000Y-159200000D03*
X97800000Y-152500000D03*
X128300000Y-159200000D03*
X128300000Y-152500000D03*
D10*
X105660000Y-125500000D03*
D11*
X95500000Y-125500000D03*
D14*
X127960000Y-124500000D03*
D15*
X130500000Y-124500000D03*
D16*
X92000000Y-144000000D03*
D17*
X92000000Y-146540000D03*
X92000000Y-149080000D03*
D16*
X134000000Y-150960000D03*
D17*
X134000000Y-153500000D03*
X134000000Y-156040000D03*
X134000000Y-158580000D03*
X134000000Y-161120000D03*
D10*
X108420000Y-125500000D03*
D11*
X118580000Y-125500000D03*
D18*
X92000000Y-125000000D02*
X90498000Y-126502000D01*
X93101000Y-125456050D02*
X93101000Y-124543950D01*
X92456050Y-123899000D02*
X91543950Y-123899000D01*
X91543950Y-123899000D02*
X90047000Y-125395950D01*
X93101000Y-124543950D02*
X92456050Y-123899000D01*
X122411000Y-140631000D02*
X122411000Y-128913950D01*
X126390000Y-144610000D02*
X122411000Y-140631000D01*
X131701000Y-124997471D02*
X131701000Y-124002529D01*
X131701000Y-124002529D02*
X130596471Y-122898000D01*
X130997471Y-125701000D02*
X131701000Y-124997471D01*
X121182000Y-122898000D02*
X118580000Y-125500000D01*
X125623950Y-125701000D02*
X130997471Y-125701000D01*
X130596471Y-122898000D02*
X121182000Y-122898000D01*
X122411000Y-128913950D02*
X125623950Y-125701000D01*
X99160000Y-135160000D02*
X108610000Y-144610000D01*
X92000000Y-135160000D02*
X99160000Y-135160000D01*
X105660000Y-125500000D02*
X108429000Y-128269000D01*
X108429000Y-128269000D02*
X117669000Y-128269000D01*
X90047000Y-125395950D02*
X90047000Y-161547000D01*
X104491900Y-126668100D02*
X94313050Y-126668100D01*
X117669000Y-128269000D02*
X118770000Y-129370000D01*
X105660000Y-125500000D02*
X104491900Y-126668100D01*
X94313050Y-126668100D02*
X93101000Y-125456050D01*
X90047000Y-161547000D02*
X92000000Y-163500000D01*
X90899000Y-134703950D02*
X90899000Y-140597000D01*
X128300000Y-159200000D02*
X100964000Y-159200000D01*
X100964000Y-159200000D02*
X93552000Y-151788000D01*
X93552000Y-143250000D02*
X93552000Y-151788000D01*
X96232950Y-129370000D02*
X90899000Y-134703950D01*
X93552000Y-151788000D02*
X92000000Y-153340000D01*
X98450000Y-129370000D02*
X96232950Y-129370000D01*
X90899000Y-140597000D02*
X93552000Y-143250000D01*
X128300000Y-159200000D02*
X134000000Y-153500000D01*
X134500000Y-162500000D02*
X135151000Y-161849000D01*
X93151000Y-145151000D02*
X92000000Y-144000000D01*
X90849000Y-154045051D02*
X90849000Y-152151000D01*
X96003949Y-159200000D02*
X90849000Y-154045051D01*
X97800000Y-159200000D02*
X101100000Y-162500000D01*
X90849000Y-152151000D02*
X93151000Y-149849000D01*
X135151000Y-161849000D02*
X135151000Y-157191000D01*
X93151000Y-149849000D02*
X93151000Y-145151000D01*
X135151000Y-157191000D02*
X134000000Y-156040000D01*
X101100000Y-162500000D02*
X134500000Y-162500000D01*
X97800000Y-159200000D02*
X96003949Y-159200000D01*
X119899000Y-126601000D02*
X123201000Y-123299000D01*
X129299000Y-123299000D02*
X130500000Y-124500000D01*
X123201000Y-123299000D02*
X129299000Y-123299000D01*
X108420000Y-125500000D02*
X109521000Y-126601000D01*
X109521000Y-126601000D02*
X119899000Y-126601000D01*
X132102000Y-125553050D02*
X130031000Y-127624050D01*
X95500000Y-125500000D02*
X98503000Y-122497000D01*
X130031000Y-146991000D02*
X134000000Y-150960000D01*
X98503000Y-122497000D02*
X130762571Y-122497000D01*
X130031000Y-127624050D02*
X130031000Y-146991000D01*
X130762571Y-122497000D02*
X132102000Y-123836429D01*
X132102000Y-123836429D02*
X132102000Y-125553050D01*
X90498000Y-145038000D02*
X92000000Y-146540000D01*
X90498000Y-126502000D02*
X90498000Y-145038000D01*
M02*
